<svg xmlns="http://www.w3.org/2000/svg" width="19" height="26" fill="none"><path fill="#F0572C" fill-rule="evenodd" d="M6.79 2.537H5.07l-.006-1.536C5.104-.145 7.427.008 9.279.008c.68.014 4.499-.198 4.508.894l.013 1.65-1.67-.022-.007-.53c-.012-.214-.254-.445-.495-.482H7.563c-.531 0-.76.185-.76.493l-.012.526ZM5.268 2.876h1.16l.011 6.708c1.364.581 1.7.72 3.005 1.937 1.58-1.542 3.016-1.919 3.016-1.919V2.87h1.112v6.453h.386v3.646a.845.845 0 0 0-.452.24v1.623c.039.088.107.155.198.205h1.625a.668.668 0 0 0 .27-.28l-.002-1.477a1.021 1.021 0 0 0-.502-.329V9.359c2.591.83 4.034 2.809 3.736 6.527h-3.726v-.48h-1.154v.456h-8.96v-.447H3.803v.437H.01c-.129-3.678 1.159-5.823 3.786-6.519v3.65a.558.558 0 0 0-.439.248v1.54a.461.461 0 0 0 .227.272H5.16a.664.664 0 0 0 .287-.315l-.017-1.473a.79.79 0 0 0-.471-.318V9.27h.351l-.043-6.395Z" clip-rule="evenodd"/><path fill="#F0572C" fill-rule="evenodd" d="M14.438 13.948h.168l.007.74h.544V13.39H13.89v1.281h.534l.013-.724ZM4.264 13.948h.168l.007.74h.543V13.39H3.716v1.281h.535l.013-.724ZM18.734 15.886c.03 0 .082 0 .078.026-.38 2.351-1.56 4.435-3.697 5.88l-.01-5.906h3.629ZM.203 15.852c-.03 0-.194-.005-.194 0 .38 2.351 1.62 4.494 3.758 5.94l.035-5.94h-3.6ZM13.908 22.627l.043-6.765H4.967l-.025 6.754C6.69 23.724 8.171 24.854 9.427 26a31.18 31.18 0 0 1 4.481-3.373Z" clip-rule="evenodd"/><path fill="#F0572C" d="M4.373 18.032c.11 0 .198-.091.198-.205a.202.202 0 0 0-.198-.205.202.202 0 0 0-.198.205c0 .113.089.205.198.205ZM4.373 16.534c.11 0 .198-.092.198-.205a.202.202 0 0 0-.198-.206.202.202 0 0 0-.198.206c0 .113.089.205.198.205ZM14.511 18.032c.11 0 .198-.091.198-.205a.202.202 0 0 0-.198-.205.202.202 0 0 0-.198.205c0 .113.089.205.198.205ZM14.511 16.534c.11 0 .198-.092.198-.205a.202.202 0 0 0-.198-.206.202.202 0 0 0-.198.206c0 .113.089.205.198.205Z"/></svg>