<svg width="24" height="24" viewBox="0 0 24 24" fill="none" xmlns="http://www.w3.org/2000/svg">
<mask id="mask0_99_266" style="mask-type:alpha" maskUnits="userSpaceOnUse" x="0" y="0" width="24" height="24">
<rect width="24" height="24" fill="#D9D9D9"/>
</mask>
<g mask="url(#mask0_99_266)">
<path d="M5.99994 19C5.16661 19 4.45827 18.7083 3.87494 18.125C3.29161 17.5417 2.99994 16.8333 2.99994 16H0.999939V7C0.999939 6.45 1.19577 5.97917 1.58744 5.5875C1.97911 5.19583 2.44994 5 2.99994 5H16.9999L22.9999 11V16H20.9999C20.9999 16.8333 20.7083 17.5417 20.1249 18.125C19.5416 18.7083 18.8333 19 17.9999 19C17.1666 19 16.4583 18.7083 15.8749 18.125C15.2916 17.5417 14.9999 16.8333 14.9999 16H8.99994C8.99994 16.8333 8.70827 17.5417 8.12494 18.125C7.54161 18.7083 6.83327 19 5.99994 19ZM14.9999 10H18.9999L15.9999 7H14.9999V10ZM8.99994 10H12.9999V7H8.99994V10ZM2.99994 10H6.99994V7H2.99994V10ZM5.99994 17.25C6.34994 17.25 6.64577 17.1292 6.88744 16.8875C7.12911 16.6458 7.24994 16.35 7.24994 16C7.24994 15.65 7.12911 15.3542 6.88744 15.1125C6.64577 14.8708 6.34994 14.75 5.99994 14.75C5.64994 14.75 5.35411 14.8708 5.11244 15.1125C4.87077 15.3542 4.74994 15.65 4.74994 16C4.74994 16.35 4.87077 16.6458 5.11244 16.8875C5.35411 17.1292 5.64994 17.25 5.99994 17.25ZM17.9999 17.25C18.3499 17.25 18.6458 17.1292 18.8874 16.8875C19.1291 16.6458 19.2499 16.35 19.2499 16C19.2499 15.65 19.1291 15.3542 18.8874 15.1125C18.6458 14.8708 18.3499 14.75 17.9999 14.75C17.6499 14.75 17.3541 14.8708 17.1124 15.1125C16.8708 15.3542 16.7499 15.65 16.7499 16C16.7499 16.35 16.8708 16.6458 17.1124 16.8875C17.3541 17.1292 17.6499 17.25 17.9999 17.25ZM2.99994 14H3.79994C4.08327 13.7 4.40827 13.4583 4.77494 13.275C5.14161 13.0917 5.54994 13 5.99994 13C6.44994 13 6.85827 13.0917 7.22494 13.275C7.59161 13.4583 7.91661 13.7 8.19994 14H15.7999C16.0833 13.7 16.4083 13.4583 16.7749 13.275C17.1416 13.0917 17.5499 13 17.9999 13C18.4499 13 18.8583 13.0917 19.2249 13.275C19.5916 13.4583 19.9166 13.7 20.1999 14H20.9999V12H2.99994V14Z" fill="black"/>
</g>
</svg>
