<svg width="24" height="24" viewBox="0 0 24 24" fill="none" xmlns="http://www.w3.org/2000/svg">
<mask id="mask0_99_253" style="mask-type:alpha" maskUnits="userSpaceOnUse" x="0" y="0" width="24" height="24">
<rect width="24" height="24" fill="#D9D9D9"/>
</mask>
<g mask="url(#mask0_99_253)">
<path d="M3.99994 21V11.625L2.19994 13L0.999939 11.4L3.99994 9.1V6H5.99994V7.575L11.9999 3L22.9999 11.4L21.7999 12.975L19.9999 11.625V21H3.99994ZM5.99994 19H10.9999V15H12.9999V19H17.9999V10.1L11.9999 5.525L5.99994 10.1V19ZM3.99994 5C3.99994 4.16667 4.29161 3.45833 4.87494 2.875C5.45827 2.29167 6.16661 2 6.99994 2C7.28327 2 7.52077 1.90417 7.71244 1.7125C7.90411 1.52083 7.99994 1.28333 7.99994 1H9.99994C9.99994 1.83333 9.70827 2.54167 9.12494 3.125C8.54161 3.70833 7.83327 4 6.99994 4C6.71661 4 6.47911 4.09583 6.28744 4.2875C6.09577 4.47917 5.99994 4.71667 5.99994 5H3.99994Z" fill="black"/>
</g>
</svg>
