<svg width="20" height="20" viewBox="0 0 20 20" fill="none" xmlns="http://www.w3.org/2000/svg">
<path d="M19.9453 5.88005C19.8985 4.81735 19.7266 4.08681 19.4804 3.45372C19.2265 2.78175 18.8358 2.18015 18.3239 1.68002C17.8238 1.1721 17.2182 0.777417 16.554 0.527447C15.9173 0.281305 15.1905 0.109396 14.1278 0.0625903C13.0572 0.011721 12.7173 0 10.002 0C7.28658 0 6.94671 0.011721 5.88006 0.0586052C4.81739 0.105489 4.08681 0.277476 3.45392 0.523462C2.78175 0.777417 2.18015 1.16812 1.68002 1.68002C1.1721 2.18011 0.777613 2.7857 0.527447 3.44989C0.281305 4.08681 0.109435 4.81344 0.0625904 5.87607C0.0117601 6.94671 0 7.28658 0 10.002C0 12.7173 0.0117601 13.0572 0.0586052 14.1239C0.105489 15.1866 0.277476 15.9171 0.523657 16.5502C0.777613 17.2222 1.1721 17.8238 1.68002 18.3239C2.18015 18.8318 2.78574 19.2265 3.44993 19.4765C4.08678 19.7226 4.8134 19.8945 5.87627 19.9413C6.94272 19.9884 7.28279 19.9999 9.99816 19.9999C12.7135 19.9999 13.0534 19.9884 14.1201 19.9413C15.1827 19.8945 15.9133 19.7226 16.5462 19.4765C17.2109 19.2195 17.8146 18.8264 18.3186 18.3225C18.8225 17.8185 19.2156 17.2149 19.4727 16.5502C19.7187 15.9133 19.8907 15.1865 19.9375 14.1239C19.9844 13.0572 19.9961 12.7173 19.9961 10.002C19.9961 7.28658 19.9921 6.94667 19.9453 5.88005ZM18.1443 14.0457C18.1012 15.0225 17.9372 15.5499 17.8004 15.9015C17.4643 16.7728 16.7728 17.4643 15.9015 17.8004C15.5499 17.9372 15.0187 18.1012 14.0457 18.1441C12.9908 18.1911 12.6745 18.2027 10.0059 18.2027C7.33741 18.2027 7.01707 18.1911 5.96597 18.1441C4.98922 18.1012 4.46177 17.9372 4.11014 17.8004C3.67658 17.6402 3.28193 17.3862 2.96156 17.0541C2.62946 16.7298 2.3755 16.3391 2.21524 15.9055C2.07849 15.5539 1.91444 15.0225 1.87158 14.0497C1.82454 12.9948 1.81297 12.6783 1.81297 10.0097C1.81297 7.3412 1.82454 7.02086 1.87158 5.96995C1.91444 4.9932 2.07849 4.46575 2.21524 4.11412C2.3755 3.68037 2.62946 3.2858 2.96554 2.96534C3.28967 2.63325 3.68037 2.37929 4.11412 2.21922C4.46576 2.08248 4.99719 1.91838 5.96996 1.87537C7.02485 1.82848 7.3414 1.81676 10.0097 1.81676C12.6822 1.81676 12.9986 1.82848 14.0497 1.87537C15.0265 1.91842 15.5539 2.08244 15.9055 2.21918C16.3391 2.37929 16.7338 2.63325 17.0541 2.96534C17.3862 3.28967 17.6402 3.68037 17.8004 4.11412C17.9372 4.46575 18.1012 4.99699 18.1442 5.96995C18.1911 7.02485 18.2029 7.3412 18.2029 10.0097C18.2029 12.6783 18.1912 12.9908 18.1443 14.0457Z" fill="#3F4766"/>
<path d="M10.002 4.86421C7.16557 4.86421 4.86426 7.16536 4.86426 10.0019C4.86426 12.8385 7.16557 15.1397 10.002 15.1397C12.8385 15.1397 15.1397 12.8385 15.1397 10.0019C15.1397 7.16536 12.8385 4.86421 10.002 4.86421ZM10.002 13.3346C8.16186 13.3346 6.66922 11.8422 6.66922 10.0019C6.66922 8.16165 8.16186 6.66925 10.0019 6.66925C11.8422 6.66925 13.3347 8.16165 13.3347 10.0019C13.3347 11.8422 11.8422 13.3346 10.002 13.3346ZM16.5424 4.66105C16.5424 5.32344 16.0053 5.8605 15.3428 5.8605C14.6804 5.8605 14.1434 5.32344 14.1434 4.66105C14.1434 3.99857 14.6804 3.46167 15.3428 3.46167C16.0053 3.46167 16.5424 3.99853 16.5424 4.66105Z" fill="#3F4766"/>
</svg>
