<svg width="18" height="18" viewBox="0 0 18 18" fill="none" xmlns="http://www.w3.org/2000/svg">
<g clip-path="url(#clip0_101_349)">
<path d="M13.5002 0H4.50041C2.02569 0 0.000518799 2.02517 0.000518799 4.49989V13.5001C0.000518799 15.9742 2.02569 18 4.50041 18H13.5002C15.9749 18 18.0001 15.9742 18.0001 13.5001V4.49989C18.0001 2.02517 15.9749 0 13.5002 0ZM16.5 13.5001C16.5 15.1538 15.1548 16.5 13.5002 16.5H4.50041C2.84648 16.5 1.50056 15.1538 1.50056 13.5001V4.49989C1.50056 2.84574 2.84648 1.50004 4.50041 1.50004H13.5002C15.1548 1.50004 16.5 2.84574 16.5 4.49989V13.5001Z" fill="#E0F1ED"/>
<path d="M13.8756 5.24982C14.4969 5.24982 15.0006 4.74616 15.0006 4.12485C15.0006 3.50355 14.4969 2.99988 13.8756 2.99988C13.2543 2.99988 12.7506 3.50355 12.7506 4.12485C12.7506 4.74616 13.2543 5.24982 13.8756 5.24982Z" fill="#E0F1ED"/>
<path d="M8.99998 4.49988C6.51423 4.49988 4.50009 6.51424 4.50009 8.99977C4.50009 11.4844 6.51423 13.5001 8.99998 13.5001C11.485 13.5001 13.4999 11.4844 13.4999 8.99977C13.4999 6.51424 11.485 4.49988 8.99998 4.49988ZM8.99998 12.0001C7.34333 12.0001 6.00013 10.6569 6.00013 8.99977C6.00013 7.34267 7.34333 5.99991 8.99998 5.99991C10.6566 5.99991 11.9998 7.34267 11.9998 8.99977C11.9998 10.6569 10.6566 12.0001 8.99998 12.0001Z" fill="#E0F1ED"/>
</g>
<defs>
<clipPath id="clip0_101_349">
<rect width="18" height="18" fill="white"/>
</clipPath>
</defs>
</svg>
