<svg width="59" height="36" viewBox="0 0 59 36" fill="none" xmlns="http://www.w3.org/2000/svg">
<path d="M6.86612 6.22834C6.82351 5.79865 6.64063 5.46484 6.31747 5.22692C5.99432 4.98899 5.55575 4.87003 5.00178 4.87003C4.62536 4.87003 4.30753 4.9233 4.0483 5.02983C3.78906 5.13281 3.5902 5.27663 3.4517 5.46129C3.31676 5.64595 3.24929 5.85547 3.24929 6.08984C3.24219 6.28516 3.28303 6.45561 3.3718 6.60121C3.46413 6.7468 3.5902 6.87287 3.75 6.9794C3.9098 7.08239 4.09446 7.17294 4.30398 7.25107C4.51349 7.32564 4.73722 7.38956 4.97514 7.44283L5.95526 7.6772C6.43111 7.78374 6.8679 7.92578 7.26562 8.10334C7.66335 8.28089 8.00781 8.49929 8.29901 8.75852C8.5902 9.01776 8.8157 9.32315 8.9755 9.67472C9.13885 10.0263 9.2223 10.4293 9.22585 10.8839C9.2223 11.5515 9.05185 12.1303 8.71449 12.6204C8.38068 13.1069 7.89773 13.4851 7.26562 13.755C6.63707 14.0213 5.87891 14.1545 4.99112 14.1545C4.11044 14.1545 3.34339 14.0195 2.68999 13.7496C2.04013 13.4798 1.53232 13.0803 1.16655 12.5511C0.804332 12.0185 0.614347 11.3597 0.596591 10.5749H2.82848C2.85334 10.9407 2.9581 11.2461 3.14276 11.4911C3.33097 11.7326 3.58132 11.9155 3.89382 12.0398C4.20987 12.1605 4.56676 12.2209 4.96449 12.2209C5.35511 12.2209 5.69425 12.1641 5.98189 12.0504C6.27308 11.9368 6.49858 11.7788 6.65838 11.5763C6.81818 11.3739 6.89808 11.1413 6.89808 10.8786C6.89808 10.6335 6.82528 10.4276 6.67969 10.2607C6.53764 10.0937 6.32813 9.9517 6.05114 9.83452C5.7777 9.71733 5.44212 9.6108 5.04439 9.51491L3.85653 9.21662C2.93679 8.9929 2.21058 8.64311 1.67791 8.16726C1.14524 7.69141 0.880682 7.05043 0.884233 6.24432C0.880682 5.58381 1.05646 5.00675 1.41158 4.51314C1.77024 4.01953 2.26207 3.63423 2.88707 3.35724C3.51207 3.08026 4.2223 2.94176 5.01776 2.94176C5.82741 2.94176 6.53409 3.08026 7.13778 3.35724C7.74503 3.63423 8.21733 4.01953 8.55469 4.51314C8.89205 5.00675 9.06605 5.57848 9.0767 6.22834H6.86612ZM12.4086 14H9.93697L13.7029 3.09091H16.6752L20.4359 14H17.9643L15.2317 5.58381H15.1465L12.4086 14ZM12.2541 9.712H18.0922V11.5124H12.2541V9.712ZM28.4872 3.09091H30.7937V10.1754C30.7937 10.9709 30.6037 11.6669 30.2237 12.2635C29.8473 12.8601 29.32 13.3253 28.6417 13.6591C27.9634 13.9893 27.1733 14.1545 26.2713 14.1545C25.3658 14.1545 24.5739 13.9893 23.8956 13.6591C23.2173 13.3253 22.69 12.8601 22.3136 12.2635C21.9371 11.6669 21.7489 10.9709 21.7489 10.1754V3.09091H24.0554V9.97834C24.0554 10.3938 24.146 10.7631 24.3271 11.0863C24.5117 11.4094 24.771 11.6634 25.1048 11.848C25.4386 12.0327 25.8274 12.125 26.2713 12.125C26.7188 12.125 27.1076 12.0327 27.4379 11.848C27.7717 11.6634 28.0291 11.4094 28.2102 11.0863C28.3949 10.7631 28.4872 10.3938 28.4872 9.97834V3.09091ZM32.6913 14V3.09091H34.9978V7.90092H35.1416L39.0674 3.09091H41.8319L37.7836 7.9755L41.8799 14H39.1207L36.1324 9.51491L34.9978 10.8999V14H32.6913ZM52.4427 8.54545C52.4427 9.73509 52.2172 10.7472 51.7662 11.5817C51.3188 12.4162 50.708 13.0536 49.9339 13.494C49.1633 13.9308 48.2968 14.1491 47.3344 14.1491C46.365 14.1491 45.4949 13.929 44.7243 13.4886C43.9537 13.0483 43.3447 12.4109 42.8973 11.5763C42.4498 10.7418 42.2261 9.73153 42.2261 8.54545C42.2261 7.35582 42.4498 6.34375 42.8973 5.50923C43.3447 4.67472 43.9537 4.03906 44.7243 3.60227C45.4949 3.16193 46.365 2.94176 47.3344 2.94176C48.2968 2.94176 49.1633 3.16193 49.9339 3.60227C50.708 4.03906 51.3188 4.67472 51.7662 5.50923C52.2172 6.34375 52.4427 7.35582 52.4427 8.54545ZM50.1043 8.54545C50.1043 7.77486 49.9889 7.125 49.7581 6.59588C49.5308 6.06676 49.2094 5.66548 48.7939 5.39205C48.3785 5.11861 47.892 4.98189 47.3344 4.98189C46.7769 4.98189 46.2904 5.11861 45.8749 5.39205C45.4594 5.66548 45.1363 6.06676 44.9055 6.59588C44.6782 7.125 44.5645 7.77486 44.5645 8.54545C44.5645 9.31605 44.6782 9.96591 44.9055 10.495C45.1363 11.0241 45.4594 11.4254 45.8749 11.6989C46.2904 11.9723 46.7769 12.109 47.3344 12.109C47.892 12.109 48.3785 11.9723 48.7939 11.6989C49.2094 11.4254 49.5308 11.0241 49.7581 10.495C49.9889 9.96591 50.1043 9.31605 50.1043 8.54545Z" fill="#028F68"/>
<path d="M0.53267 22.9925V21.0909H9.49219V22.9925H6.15234V32H3.87251V22.9925H0.53267ZM10.9677 32V21.0909H15.2717C16.0955 21.0909 16.7987 21.2383 17.381 21.533C17.967 21.8242 18.4126 22.2379 18.718 22.7741C19.027 23.3068 19.1815 23.9336 19.1815 24.6545C19.1815 25.3789 19.0252 26.0021 18.7127 26.5241C18.4002 27.0426 17.9474 27.4403 17.3544 27.7173C16.7649 27.9943 16.0511 28.1328 15.2131 28.1328H12.3313V26.2791H14.8402C15.2805 26.2791 15.6463 26.2187 15.9375 26.098C16.2287 25.9773 16.4453 25.7962 16.5874 25.5547C16.733 25.3132 16.8058 25.0131 16.8058 24.6545C16.8058 24.2923 16.733 23.9869 16.5874 23.7383C16.4453 23.4897 16.2269 23.3015 15.9322 23.1737C15.641 23.0423 15.2734 22.9766 14.8295 22.9766H13.2741V32H10.9677ZM16.859 27.0355L19.5703 32H17.0241L14.3714 27.0355H16.859ZM22.6918 32H20.2202L23.9862 21.0909H26.9585L30.7191 32H28.2475L25.5149 23.5838H25.4297L22.6918 32ZM22.5373 27.712H28.3754V29.5124H22.5373V27.712ZM32.6407 21.0909L35.2774 29.3793H35.3786L38.0207 21.0909H40.5775L36.8169 32H33.8445L30.0786 21.0909H32.6407ZM41.8905 32V21.0909H49.2414V22.9925H44.197V25.592H48.8632V27.4936H44.197V30.0984H49.2627V32H41.8905ZM51.0751 32V21.0909H53.3816V30.0984H58.0584V32H51.0751Z" fill="black"/>
</svg>
