<svg width="195" height="34" viewBox="0 0 195 34" fill="none" xmlns="http://www.w3.org/2000/svg">
<circle cx="17" cy="17" r="17" fill="#028F68"/>
<path fill-rule="evenodd" clip-rule="evenodd" d="M14.5847 6.46015H12.9167L12.9099 4.97052C12.949 3.85968 15.2015 4.00767 16.9972 4.00767C17.6575 4.02147 21.3592 3.81578 21.3679 4.87432L21.3808 6.47374L19.7609 6.4532L19.7547 5.94001C19.7435 5.73163 19.5089 5.50819 19.2752 5.47156C17.8246 5.47156 16.7843 5.47156 15.3337 5.47156C14.8184 5.47239 14.5973 5.65089 14.5973 5.95039L14.5847 6.46015Z" fill="white"/>
<path fill-rule="evenodd" clip-rule="evenodd" d="M13.1076 8.18395H14.2335L14.2436 12.6882C15.5659 13.2515 15.8921 13.3867 17.1576 14.566C18.6897 13.0709 20.0818 12.7057 20.0818 12.7057V8.17731H21.1598V12.4346H21.5344V15.97C21.3581 16.0091 21.2079 16.0819 21.0956 16.2035V17.7758C21.1335 17.8615 21.1997 17.9263 21.288 17.975H22.8635C22.9789 17.9103 23.0642 17.8185 23.1244 17.7038L23.1236 16.2717C22.9918 16.1132 22.8274 16.0102 22.6361 15.9525L22.6369 12.4698C25.149 13.2749 26.548 15.1931 26.2591 18.7988H22.6464V18.3326H21.5275V18.7754H12.8402V18.3412H11.6868V18.7654H8.00852C7.88367 15.199 9.13212 13.1189 11.6798 12.4448V15.9833C11.5021 15.9964 11.3587 16.0733 11.2543 16.2236V17.7168C11.2921 17.8314 11.3627 17.9217 11.4739 17.9811H13.0047C13.1313 17.9088 13.2247 17.8075 13.2827 17.6756L13.2656 16.2477C13.1566 16.0875 13.0007 15.9896 12.8091 15.9389V12.3844H13.1501L13.1076 8.18395Z" fill="white"/>
<path fill-rule="evenodd" clip-rule="evenodd" d="M21.9998 16.9193H22.1628L22.1696 17.6366H22.6965V16.3791H21.4689V17.6215H21.9872L21.9998 16.9193Z" fill="white"/>
<path fill-rule="evenodd" clip-rule="evenodd" d="M12.1344 16.9193H12.2974L12.3043 17.6366H12.8312V16.3791H11.6036V17.6215H12.1218L12.1344 16.9193Z" fill="white"/>
<path fill-rule="evenodd" clip-rule="evenodd" d="M26.165 20.0355C26.1937 20.0355 26.2448 20.0355 26.2408 20.0599C25.8725 22.34 24.7287 24.3601 22.6557 25.761L22.6464 20.0355H26.165Z" fill="white"/>
<path fill-rule="evenodd" clip-rule="evenodd" d="M8.19632 20.0021C8.16758 20.0021 8.00828 19.9974 8.00848 20.0021C8.37669 22.2821 9.57937 24.3601 11.6523 25.761L11.6868 20.0021H8.19632Z" fill="white"/>
<path fill-rule="evenodd" clip-rule="evenodd" d="M21.486 26.5708L21.5275 20.0121H12.8163L12.7922 26.5606C14.4863 27.6355 15.9226 28.7304 17.1409 29.8419C18.3961 28.7096 19.8097 27.6117 21.486 26.5708Z" fill="white"/>
<path d="M12.2404 20.8796C12.3465 20.8796 12.4325 20.7905 12.4325 20.6805C12.4325 20.5705 12.3465 20.4813 12.2404 20.4813C12.1342 20.4813 12.0482 20.5705 12.0482 20.6805C12.0482 20.7905 12.1342 20.8796 12.2404 20.8796Z" fill="white"/>
<path d="M12.2404 19.4267C12.3465 19.4267 12.4325 19.3376 12.4325 19.2276C12.4325 19.1176 12.3465 19.0284 12.2404 19.0284C12.1342 19.0284 12.0482 19.1176 12.0482 19.2276C12.0482 19.3376 12.1342 19.4267 12.2404 19.4267Z" fill="white"/>
<path d="M22.0703 20.8796C22.1765 20.8796 22.2625 20.7905 22.2625 20.6805C22.2625 20.5705 22.1765 20.4813 22.0703 20.4813C21.9642 20.4813 21.8781 20.5705 21.8781 20.6805C21.8781 20.7905 21.9642 20.8796 22.0703 20.8796Z" fill="white"/>
<path d="M22.0703 19.4267C22.1765 19.4267 22.2625 19.3376 22.2625 19.2276C22.2625 19.1176 22.1765 19.0284 22.0703 19.0284C21.9642 19.0284 21.8781 19.1176 21.8781 19.2276C21.8781 19.3376 21.9642 19.4267 22.0703 19.4267Z" fill="white"/>
<path d="M56.6971 13.6559C56.6431 13.1116 56.4115 12.6888 56.0021 12.3874C55.5928 12.0861 55.0373 11.9354 54.3356 11.9354C53.8588 11.9354 53.4562 12.0028 53.1278 12.1378C52.7995 12.2682 52.5476 12.4504 52.3722 12.6843C52.2012 12.9182 52.1158 13.1836 52.1158 13.4805C52.1068 13.7279 52.1585 13.9438 52.271 14.1282C52.3879 14.3126 52.5476 14.4723 52.75 14.6072C52.9524 14.7377 53.1863 14.8524 53.4517 14.9513C53.7171 15.0458 54.0005 15.1268 54.3018 15.1942L55.5433 15.4911C56.1461 15.6261 56.6993 15.806 57.2031 16.0309C57.7069 16.2558 58.1432 16.5324 58.5121 16.8608C58.8809 17.1892 59.1665 17.576 59.369 18.0213C59.5759 18.4666 59.6816 18.9772 59.6861 19.5529C59.6816 20.3986 59.4657 21.1317 59.0384 21.7525C58.6155 22.3687 58.0038 22.8478 57.2031 23.1896C56.407 23.527 55.4466 23.6957 54.3221 23.6957C53.2066 23.6957 52.235 23.5247 51.4073 23.1829C50.5842 22.841 49.9409 22.335 49.4776 21.6648C49.0188 20.9901 48.7782 20.1557 48.7557 19.1616H51.5827C51.6142 19.6249 51.7469 20.0117 51.9808 20.3221C52.2192 20.628 52.5363 20.8596 52.9322 21.017C53.3325 21.17 53.7846 21.2464 54.2884 21.2464C54.7831 21.2464 55.2127 21.1745 55.5771 21.0305C55.9459 20.8866 56.2315 20.6864 56.4339 20.43C56.6364 20.1737 56.7376 19.879 56.7376 19.5462C56.7376 19.2358 56.6454 18.9749 56.4609 18.7635C56.281 18.5521 56.0156 18.3722 55.6648 18.2237C55.3184 18.0753 54.8933 17.9403 54.3896 17.8189L52.8849 17.4411C51.7199 17.1577 50.8001 16.7146 50.1254 16.1119C49.4506 15.5091 49.1155 14.6972 49.12 13.6761C49.1155 12.8395 49.3382 12.1085 49.788 11.4833C50.2423 10.8581 50.8653 10.37 51.657 10.0192C52.4486 9.66832 53.3482 9.4929 54.3558 9.4929C55.3814 9.4929 56.2765 9.66832 57.0412 10.0192C57.8104 10.37 58.4086 10.8581 58.8359 11.4833C59.2633 12.1085 59.4837 12.8327 59.4972 13.6559H56.6971ZM63.7175 23.5H60.5868L65.3571 9.68182H69.122L73.8855 23.5H70.7548L67.2935 12.8395H67.1855L63.7175 23.5ZM63.5218 18.0685H70.9167V20.3491H63.5218V18.0685ZM84.0838 9.68182H87.0053V18.6555C87.0053 19.6631 86.7647 20.5447 86.2834 21.3004C85.8066 22.0561 85.1386 22.6454 84.2795 23.0682C83.4203 23.4865 82.4195 23.6957 81.277 23.6957C80.13 23.6957 79.1269 23.4865 78.2678 23.0682C77.4086 22.6454 76.7406 22.0561 76.2638 21.3004C75.7871 20.5447 75.5487 19.6631 75.5487 18.6555V9.68182H78.4702V18.4059C78.4702 18.9322 78.5849 19.4 78.8143 19.8093C79.0482 20.2186 79.3765 20.5402 79.7994 20.7741C80.2222 21.008 80.7147 21.125 81.277 21.125C81.8438 21.125 82.3363 21.008 82.7546 20.7741C83.1774 20.5402 83.5036 20.2186 83.733 19.8093C83.9669 19.4 84.0838 18.9322 84.0838 18.4059V9.68182ZM89.409 23.5V9.68182H92.3305V15.7745H92.5127L97.4854 9.68182H100.987L95.8593 15.869L101.048 23.5H97.5528L93.7677 17.8189L92.3305 19.5732V23.5H89.409ZM114.427 16.5909C114.427 18.0978 114.142 19.3797 113.571 20.4368C113.004 21.4938 112.23 22.3013 111.25 22.859C110.273 23.4123 109.176 23.6889 107.957 23.6889C106.729 23.6889 105.627 23.41 104.651 22.8523C103.675 22.2945 102.903 21.4871 102.337 20.43C101.77 19.373 101.486 18.0933 101.486 16.5909C101.486 15.084 101.77 13.8021 102.337 12.745C102.903 11.688 103.675 10.8828 104.651 10.3295C105.627 9.77178 106.729 9.4929 107.957 9.4929C109.176 9.4929 110.273 9.77178 111.25 10.3295C112.23 10.8828 113.004 11.688 113.571 12.745C114.142 13.8021 114.427 15.084 114.427 16.5909ZM111.465 16.5909C111.465 15.6148 111.319 14.7917 111.027 14.1214C110.739 13.4512 110.332 12.9429 109.806 12.5966C109.279 12.2502 108.663 12.0771 107.957 12.0771C107.251 12.0771 106.634 12.2502 106.108 12.5966C105.582 12.9429 105.173 13.4512 104.88 14.1214C104.592 14.7917 104.448 15.6148 104.448 16.5909C104.448 17.567 104.592 18.3902 104.88 19.0604C105.173 19.7306 105.582 20.2389 106.108 20.5852C106.634 20.9316 107.251 21.1048 107.957 21.1048C108.663 21.1048 109.279 20.9316 109.806 20.5852C110.332 20.2389 110.739 19.7306 111.027 19.0604C111.319 18.3902 111.465 17.567 111.465 16.5909Z" fill="#028F68"/>
<path d="M120.463 12.0906V9.68182H131.812V12.0906H127.581V23.5H124.693V12.0906H120.463ZM133.68 23.5V9.68182H139.132C140.176 9.68182 141.066 9.86849 141.804 10.2418C142.546 10.6107 143.111 11.1347 143.498 11.8139C143.889 12.4886 144.085 13.2826 144.085 14.1957C144.085 15.1133 143.887 15.9027 143.491 16.5639C143.095 17.2206 142.522 17.7244 141.77 18.0753C141.024 18.4261 140.12 18.6016 139.058 18.6016H135.408V16.2536H138.586C139.143 16.2536 139.607 16.1771 139.976 16.0241C140.344 15.8712 140.619 15.6418 140.799 15.3359C140.983 15.0301 141.075 14.65 141.075 14.1957C141.075 13.7369 140.983 13.35 140.799 13.0352C140.619 12.7203 140.342 12.4819 139.969 12.32C139.6 12.1535 139.134 12.0703 138.572 12.0703H136.602V23.5H133.68ZM141.143 17.2116L144.577 23.5H141.352L137.992 17.2116H141.143ZM148.531 23.5H145.4L150.171 9.68182H153.935L158.699 23.5H155.568L152.107 12.8395H151.999L148.531 23.5ZM148.335 18.0685H155.73V20.3491H148.335V18.0685ZM161.133 9.68182L164.473 20.1804H164.601L167.948 9.68182H171.186L166.423 23.5H162.658L157.888 9.68182H161.133ZM172.849 23.5V9.68182H182.161V12.0906H175.771V15.3832H181.681V17.7919H175.771V21.0913H182.188V23.5H172.849ZM184.483 23.5V9.68182H187.405V21.0913H193.329V23.5H184.483Z" fill="black"/>
</svg>
