<svg width="19" height="17" viewBox="0 0 19 17" fill="none" xmlns="http://www.w3.org/2000/svg">
<path d="M1 5.20825C1 3.32263 1 2.37982 1.58579 1.79404C2.17157 1.20825 3.11438 1.20825 5 1.20825H5.59315C6.41065 1.20825 6.8194 1.20825 7.18694 1.36049C7.55448 1.51273 7.84351 1.80176 8.42157 2.37982L9.20343 3.16168C9.78149 3.73974 10.0705 4.02877 10.4381 4.18101C10.8056 4.33325 11.2144 4.33325 12.0319 4.33325H13.6667C15.5523 4.33325 16.4951 4.33325 17.0809 4.91904C17.6667 5.50482 17.6667 6.44763 17.6667 8.33325V11.7916C17.6667 13.6772 17.6667 14.62 17.0809 15.2058C16.4951 15.7916 15.5523 15.7916 13.6667 15.7916H5C3.11438 15.7916 2.17157 15.7916 1.58579 15.2058C1 14.62 1 13.6772 1 11.7916V5.20825Z" stroke="#6E7078" stroke-width="2"/>
</svg>
