<svg width="120" height="120" viewBox="0 0 120 120" fill="none" xmlns="http://www.w3.org/2000/svg">
<circle cx="60" cy="60" r="60" fill="#028F68"/>
<path fill-rule="evenodd" clip-rule="evenodd" d="M51.4756 22.8005H45.5885L45.5643 17.543C45.7024 13.6224 53.6524 14.1447 59.9904 14.1447C62.3207 14.1934 75.3857 13.4674 75.4161 17.2034L75.4619 22.8485L69.7443 22.776L69.7227 20.9647C69.6832 20.2292 68.855 19.4407 68.0302 19.3114C62.9104 19.3114 59.2388 19.3114 54.119 19.3114C52.3005 19.3143 51.52 19.9443 51.52 21.0014L51.4756 22.8005Z" fill="white"/>
<path fill-rule="evenodd" clip-rule="evenodd" d="M46.2622 28.8845H50.2359L50.2715 44.782C54.9385 46.7701 56.0897 47.247 60.5561 51.4094C65.9634 46.1324 70.877 44.8435 70.877 44.8435V28.8611H74.6815V43.8868H76.0037V56.3647C75.3814 56.5028 74.8514 56.7596 74.4551 57.1888V62.7383C74.5888 63.0404 74.8225 63.2694 75.1342 63.4411H80.6946C81.1019 63.213 81.403 62.8888 81.6154 62.4841L81.6125 57.4295C81.1473 56.8702 80.5672 56.5065 79.8921 56.3028L79.895 44.011C88.7611 46.8525 93.6989 53.6228 92.6791 66.3486H79.9284V64.7033H75.9792V66.2662H45.3183V64.7337H41.2475V66.2307H28.2653C27.8247 53.6436 32.231 46.302 41.2226 43.9227V56.4116C40.5956 56.4577 40.0894 56.7292 39.7209 57.2599V62.5299C39.8542 62.9342 40.1037 63.2529 40.496 63.4628H45.8989C46.3457 63.2075 46.6754 62.85 46.8801 62.3844L46.8197 57.3449C46.4351 56.7793 45.8846 56.4339 45.2084 56.2548V43.7095H46.412L46.2622 28.8845Z" fill="white"/>
<path fill-rule="evenodd" clip-rule="evenodd" d="M77.6465 59.7151H78.2219L78.246 62.2467H80.1056V57.8086H75.7729V62.1936H77.6021L77.6465 59.7151Z" fill="white"/>
<path fill-rule="evenodd" clip-rule="evenodd" d="M42.8276 59.7151H43.403L43.4272 62.2467H45.2868V57.8086H40.9541V62.1936H42.7833L42.8276 59.7151Z" fill="white"/>
<path fill-rule="evenodd" clip-rule="evenodd" d="M92.3469 70.7136C92.4484 70.7136 92.6286 70.7136 92.6146 70.7997C91.3147 78.8471 87.2777 85.977 79.9613 90.9214L79.9283 70.7136H92.3469Z" fill="white"/>
<path fill-rule="evenodd" clip-rule="evenodd" d="M28.928 70.5955C28.8265 70.5955 28.2643 70.579 28.265 70.5955C29.5646 78.6426 33.8093 85.9769 41.1257 90.9212L41.2473 70.5955H28.928Z" fill="white"/>
<path fill-rule="evenodd" clip-rule="evenodd" d="M75.833 93.7793L75.9795 70.6311H45.234L45.149 93.7434C51.1285 97.5369 56.1977 101.402 60.4974 105.324C64.9275 101.328 69.9169 97.4531 75.833 93.7793Z" fill="white"/>
<path d="M43.2015 73.6928C43.5762 73.6928 43.8799 73.3781 43.8799 72.9899C43.8799 72.6017 43.5762 72.287 43.2015 72.287C42.8269 72.287 42.5232 72.6017 42.5232 72.9899C42.5232 73.3781 42.8269 73.6928 43.2015 73.6928Z" fill="white"/>
<path d="M43.2015 68.565C43.5762 68.565 43.8799 68.2503 43.8799 67.8621C43.8799 67.4739 43.5762 67.1592 43.2015 67.1592C42.8269 67.1592 42.5232 67.4739 42.5232 67.8621C42.5232 68.2503 42.8269 68.565 43.2015 68.565Z" fill="white"/>
<path d="M77.8955 73.6928C78.2701 73.6928 78.5738 73.3781 78.5738 72.9899C78.5738 72.6017 78.2701 72.287 77.8955 72.287C77.5209 72.287 77.2172 72.6017 77.2172 72.9899C77.2172 73.3781 77.5209 73.6928 77.8955 73.6928Z" fill="white"/>
<path d="M77.8955 68.565C78.2701 68.565 78.5738 68.2503 78.5738 67.8621C78.5738 67.4739 78.2701 67.1592 77.8955 67.1592C77.5209 67.1592 77.2172 67.4739 77.2172 67.8621C77.2172 68.2503 77.5209 68.565 77.8955 68.565Z" fill="white"/>
</svg>
