<svg width="17" height="17" viewBox="0 0 17 17" fill="none" xmlns="http://www.w3.org/2000/svg">
<path d="M8.50016 0.385376C12.9786 0.385376 16.6147 4.0215 16.6147 8.49996C16.6147 12.9784 12.9786 16.6145 8.50016 16.6145C4.02171 16.6145 0.38558 12.9784 0.38558 8.49996C0.38558 4.0215 4.02171 0.385376 8.50016 0.385376ZM8.50016 1.57288C4.67681 1.57288 1.57308 4.6766 1.57308 8.49996C1.57308 12.3233 4.67681 15.427 8.50016 15.427C12.3235 15.427 15.4272 12.3233 15.4272 8.49996C15.4272 4.6766 12.3235 1.57288 8.50016 1.57288ZM5.53141 10.0837V6.91702C5.53141 6.54959 5.67738 6.1972 5.93719 5.93738C6.19701 5.67757 6.54939 5.5316 6.91683 5.5316H10.0835C10.4509 5.5316 10.8033 5.67757 11.0631 5.93738C11.323 6.1972 11.4689 6.54959 11.4689 6.91702V10.0837C11.4689 10.4511 11.323 10.8035 11.0631 11.0633C10.8033 11.3231 10.4509 11.4691 10.0835 11.4691H6.91683C6.54939 11.4691 6.19701 11.3231 5.93719 11.0633C5.67738 10.8035 5.53141 10.4511 5.53141 10.0837Z" fill="#484848"/>
</svg>
