<svg width="25" height="20" viewBox="0 0 25 20" fill="none" xmlns="http://www.w3.org/2000/svg">
<path d="M19.8216 20C19.6365 20.0014 19.4556 19.9446 19.3039 19.8376L10.7255 13.7571C10.6194 13.6815 10.5308 13.5834 10.4661 13.4697C10.4013 13.3559 10.3619 13.2293 10.3506 13.0986C10.3386 12.9664 10.3555 12.8332 10.4003 12.7085C10.445 12.5837 10.5164 12.4705 10.6095 12.3768L12.9482 9.97713L8.9402 12.5122L10.7255 16.653L11.511 15.8591C11.6779 15.6892 11.9048 15.5933 12.1417 15.5925C12.3785 15.5916 12.606 15.6859 12.7741 15.8546C12.9422 16.0233 13.0371 16.2525 13.038 16.4919C13.0388 16.7313 12.9455 16.9613 12.7786 17.1311L10.9933 18.8633C10.8904 18.9683 10.7635 19.0462 10.6238 19.0901C10.4841 19.134 10.3358 19.1425 10.1921 19.1149C10.0484 19.0872 9.91361 19.0243 9.7996 18.9317C9.68558 18.8391 9.59584 18.7195 9.53827 18.5836L6.95852 12.5031C6.87593 12.3043 6.86654 12.0822 6.93204 11.877C6.99754 11.6718 7.1336 11.497 7.31558 11.3845L18.4915 4.42893C18.6779 4.31298 18.9 4.27028 19.1155 4.30895C19.331 4.34761 19.5249 4.46494 19.6604 4.63864C19.7959 4.81234 19.8636 5.0303 19.8505 5.2511C19.8374 5.4719 19.7446 5.68016 19.5895 5.83628L12.609 12.8911L19.2503 17.6003L22.8209 2.26378L3.38792 9.57117L5.5392 10.4733C5.6547 10.5125 5.76103 10.5752 5.85166 10.6574C5.94229 10.7397 6.01529 10.8399 6.06618 10.9518C6.11706 11.0636 6.14475 11.1848 6.14753 11.3079C6.15032 11.431 6.12814 11.5534 6.08237 11.6675C6.0366 11.7816 5.9682 11.885 5.88139 11.9714C5.79458 12.0578 5.69119 12.1253 5.57758 12.1698C5.46398 12.2143 5.34257 12.2348 5.22084 12.23C5.0991 12.2253 4.97961 12.1954 4.86972 12.1423L0.576073 10.3831C0.406709 10.3182 0.260896 10.2027 0.158002 10.0521C0.055107 9.90139 0 9.72266 0 9.53959C0 9.35653 0.055107 9.17779 0.158002 9.02713C0.260896 8.87647 0.406709 8.76101 0.576073 8.69608L23.8028 0.0535244C23.9532 -0.00128648 24.1153 -0.0142954 24.2723 0.0158559C24.4293 0.0460073 24.5755 0.118213 24.6955 0.224932C24.8196 0.334777 24.9111 0.477232 24.96 0.636482C25.0088 0.795732 25.013 0.965548 24.9722 1.12708L20.6875 19.3053C20.6544 19.4498 20.5866 19.5839 20.4901 19.6956C20.3936 19.8073 20.2713 19.8933 20.134 19.9458C20.0336 19.9813 19.928 19.9996 19.8216 20Z" fill="#3F4766"/>
</svg>
