<svg width="20" height="22" viewBox="0 0 20 22" fill="none" xmlns="http://www.w3.org/2000/svg">
<path d="M12.2222 0H7.77778C5.71498 0 3.73668 0.811294 2.27806 2.25541C0.819443 3.69952 6.88316e-07 5.65815 6.88316e-07 7.70043V11.0006C-0.00061864 12.4584 0.416715 13.8864 1.20348 15.1185C1.99025 16.3507 3.11412 17.3365 4.44445 17.9613V21.6382C4.44577 21.71 4.46822 21.7797 4.50903 21.839C4.54984 21.8983 4.60724 21.9445 4.6742 21.972C4.74115 21.9994 4.81474 22.0069 4.88593 21.9936C4.95713 21.9802 5.02284 21.9465 5.075 21.8967L8.30278 18.7011H12.2222C14.285 18.7011 16.2633 17.8898 17.7219 16.4456C19.1806 15.0015 20 13.0429 20 11.0006V7.70043C20 5.65815 19.1806 3.69952 17.7219 2.25541C16.2633 0.811294 14.285 0 12.2222 0ZM15.1333 14.4328L14.0222 15.5329C12.8389 16.6797 9.75 15.3706 7.02778 12.6177C4.30556 9.86481 3.11111 6.77638 4.25 5.62957L5.36111 4.52951C5.57888 4.33597 5.86202 4.2303 6.15463 4.23336C6.44725 4.23641 6.72807 4.34797 6.94167 4.54601L8.56389 6.1961C8.69273 6.32773 8.78563 6.48964 8.83388 6.6666C8.88212 6.84356 8.88411 7.02977 8.83967 7.2077C8.79523 7.38564 8.7058 7.54946 8.57981 7.68376C8.45382 7.81807 8.2954 7.91844 8.11945 7.97545C7.85864 8.05468 7.63866 8.23031 7.50521 8.46589C7.37176 8.70146 7.33507 8.97887 7.40278 9.24052C7.68056 10.4616 9.24722 11.9907 10.4139 12.2904C10.6769 12.3525 10.9538 12.3175 11.1926 12.1919C11.4314 12.0663 11.6157 11.8589 11.7111 11.6084C11.7727 11.4337 11.8787 11.2776 12.0189 11.1553C12.1591 11.0329 12.3287 10.9482 12.5115 10.9096C12.6943 10.8709 12.8841 10.8794 13.0625 10.9344C13.241 10.9894 13.4022 11.0889 13.5306 11.2234L15.15 12.8735C15.3445 13.0885 15.4507 13.3677 15.4476 13.6563C15.4445 13.945 15.3324 14.222 15.1333 14.4328ZM11.0111 5.22529C10.9006 5.22477 10.7902 5.2312 10.6806 5.24455C10.5829 5.25512 10.4851 5.22687 10.4085 5.16601C10.3319 5.10516 10.2829 5.01667 10.2722 4.92003C10.2615 4.82338 10.2901 4.7265 10.3515 4.65068C10.413 4.57487 10.5024 4.52633 10.6 4.51575C10.7365 4.5002 10.8738 4.49285 11.0111 4.49375C11.9941 4.49302 12.9372 4.87876 13.6331 5.56618C14.329 6.2536 14.7208 7.18646 14.7222 8.15971C14.7231 8.2957 14.7157 8.43163 14.7 8.56673C14.6947 8.61459 14.68 8.66094 14.6566 8.70315C14.6332 8.74535 14.6016 8.78259 14.5637 8.81272C14.5258 8.84285 14.4823 8.8653 14.4356 8.87877C14.3889 8.89225 14.34 8.89649 14.2917 8.89125C14.2433 8.88601 14.1965 8.8714 14.1539 8.84825C14.1113 8.8251 14.0736 8.79386 14.0432 8.75632C14.0128 8.71878 13.9901 8.67568 13.9765 8.62946C13.9629 8.58325 13.9586 8.53483 13.9639 8.48698C13.976 8.37829 13.9825 8.26906 13.9833 8.15971C13.9819 7.38047 13.668 6.63369 13.1107 6.08346C12.5533 5.53323 11.7982 5.22456 11.0111 5.22529ZM13.2333 8.15971C13.2253 8.2516 13.1827 8.33716 13.1141 8.3995C13.0454 8.46184 12.9557 8.49642 12.8625 8.49642C12.7693 8.49642 12.6796 8.46184 12.6109 8.3995C12.5423 8.33716 12.4997 8.2516 12.4917 8.15971C12.4917 7.77095 12.3357 7.39811 12.058 7.12321C11.7804 6.84831 11.4038 6.69388 11.0111 6.69388C10.9597 6.69829 10.908 6.69207 10.8591 6.67562C10.8103 6.65917 10.7654 6.63285 10.7274 6.59833C10.6894 6.56381 10.659 6.52183 10.6383 6.47508C10.6175 6.42833 10.6068 6.37781 10.6068 6.32673C10.6068 6.27566 10.6175 6.22514 10.6383 6.17838C10.659 6.13163 10.6894 6.08966 10.7274 6.05514C10.7654 6.02061 10.8103 5.99429 10.8591 5.97784C10.908 5.9614 10.9597 5.95518 11.0111 5.95959C11.6005 5.95959 12.1657 6.19138 12.5825 6.60399C12.9992 7.01659 13.2333 7.5762 13.2333 8.15971ZM16.0583 9.35053C16.0501 9.40052 16.0316 9.44831 16.0039 9.49089C15.9762 9.53348 15.9399 9.56995 15.8973 9.59804C15.8547 9.62612 15.8068 9.64521 15.7564 9.65412C15.706 9.66303 15.6544 9.66157 15.6046 9.64982C15.5548 9.63807 15.5081 9.61629 15.4672 9.58583C15.4263 9.55538 15.3922 9.51691 15.367 9.47283C15.3418 9.42874 15.326 9.37999 15.3207 9.32961C15.3154 9.27923 15.3207 9.2283 15.3361 9.18002C15.4163 8.84762 15.4564 8.50697 15.4556 8.16521C15.4556 6.99819 14.9873 5.87897 14.1538 5.05377C13.3203 4.22856 12.1899 3.76496 11.0111 3.76496H10.6667C10.6182 3.76857 10.5694 3.76269 10.5232 3.74764C10.477 3.7326 10.4342 3.70869 10.3973 3.67728C10.3228 3.61384 10.2768 3.5237 10.2694 3.42669C10.2621 3.32968 10.2939 3.23375 10.358 3.16C10.4221 3.08625 10.5131 3.04071 10.6111 3.03342C10.7444 3.02242 10.8778 3.01692 11.0111 3.01692C12.3873 3.01911 13.7064 3.5619 14.6788 4.52612C15.6511 5.49035 16.1972 6.79719 16.1972 8.15971C16.1974 8.56062 16.1508 8.9602 16.0583 9.35053Z" fill="#3F4766"/>
</svg>
