<svg width="27" height="17" viewBox="0 0 27 17" fill="none" xmlns="http://www.w3.org/2000/svg">
<path d="M13.4606 16.6248C17.3087 16.6248 15.9366 14.1887 16.2336 13.4883C16.2292 12.9651 16.2247 12.462 16.2425 12.1561C16.4863 12.2248 17.0615 12.5163 18.2496 13.6711C20.0839 15.522 20.5527 16.6248 22.0345 16.6248H24.7621C25.6266 16.6248 26.0766 16.2668 26.3016 15.9665C26.5188 15.6761 26.7316 15.1663 26.4989 14.3727C25.8904 12.462 22.3416 9.1625 22.121 8.81448C22.1567 8.74849 22.1948 8.6838 22.2352 8.62053H22.2329C22.9334 7.69508 25.6067 3.6896 26.0001 2.08697C26.0015 2.08421 26.0023 2.08119 26.0023 2.0781C26.2151 1.34661 26.0201 0.872249 25.8184 0.604035C25.5147 0.202823 25.0315 0 24.3786 0H21.6511C20.7378 0 20.0451 0.459953 19.6949 1.29895C19.1086 2.78965 17.4616 5.85526 16.2269 6.94031C16.1994 5.74604 16.202 4.55125 16.2347 3.35711C16.2746 1.65583 16.4032 0 14.6376 0H10.3506C9.24451 0 8.18607 1.20807 9.33207 2.64224C10.334 3.89908 9.69228 4.59954 9.9084 8.08632C9.06607 7.18303 7.56762 4.74362 6.50807 1.62591C6.21104 0.782475 5.76106 0.00110824 4.49425 0.00110824H1.76667C0.66056 0.00110824 0 0.604035 0 1.61372C0 3.88134 5.01959 16.6248 13.4606 16.6248ZM4.49425 1.66359C4.73475 1.66359 4.75913 1.66359 4.93757 2.17009C6.02262 5.36539 8.4565 10.0935 10.2342 10.0935C11.5698 10.0935 11.5698 8.72471 11.5698 8.20934L11.5687 4.10633C11.4955 2.74864 11.0012 2.07256 10.6765 1.66248L14.5645 1.66692C14.5667 1.68576 14.5423 6.20549 14.5755 7.30052C14.5755 8.85549 15.8102 9.74658 17.7376 7.79594C19.7714 5.5006 21.1778 2.06924 21.2343 1.92959C21.3175 1.73009 21.3895 1.66248 21.6511 1.66248H24.3897L24.3875 1.67246C24.1381 2.8362 21.6766 6.54464 20.8531 7.69619L20.8154 7.7516C20.453 8.34345 20.1582 8.99736 20.8653 9.91726C20.9296 9.99485 21.098 10.1766 21.3418 10.4293C22.0999 11.2118 24.7001 13.8873 24.9306 14.9513C24.7776 14.9756 24.6114 14.9579 22.0345 14.9635C21.4859 14.9635 21.057 14.1433 19.42 12.4919C17.9482 11.0599 16.9928 10.4748 16.1228 10.4748C14.4337 10.4748 14.5567 11.8457 14.5722 13.5038C14.5778 15.3015 14.5667 14.7329 14.5789 14.846C14.4802 14.8848 14.1976 14.9623 13.4606 14.9623C6.42827 14.9623 1.84868 3.80044 1.67246 1.66692C1.73342 1.66137 2.57241 1.6647 4.49425 1.66359Z" fill="#E0F1ED"/>
</svg>
