<svg width="20" height="20" viewBox="0 0 20 20" fill="none" xmlns="http://www.w3.org/2000/svg">
<path d="M17.112 2.94167C15.4337 1.25999 13.2048 0.228672 10.8275 0.0337397C8.45014 -0.161193 6.08084 0.493094 4.14695 1.87858C2.21306 3.26407 0.841874 5.28956 0.280731 7.58968C-0.280413 9.88981 0.00542421 12.3132 1.08668 14.4226L0.0252924 19.5348C0.0142793 19.5856 0.0139674 19.6382 0.0243763 19.6892C0.0347853 19.7402 0.0556908 19.7886 0.0857858 19.8312C0.129873 19.8959 0.192804 19.9457 0.266176 19.974C0.339548 20.0022 0.419869 20.0076 0.49641 19.9894L5.54672 18.8019C7.66705 19.8474 10.0925 20.1127 12.3915 19.5507C14.6905 18.9886 16.714 17.6356 18.1018 15.7323C19.4897 13.8291 20.1519 11.4991 19.9706 9.15697C19.7894 6.81482 18.7764 4.61243 17.112 2.94167ZM15.5374 15.4101C14.3761 16.559 12.8807 17.3173 11.262 17.5783C9.64331 17.8393 7.98284 17.5899 6.51462 16.865L5.81069 16.5195L2.71451 17.2469L2.72368 17.2087L3.36528 14.1171L3.02065 13.4424C2.27045 11.9807 2.00581 10.321 2.26464 8.70096C2.52346 7.08093 3.29247 5.58374 4.4615 4.42385C5.93041 2.96703 7.9224 2.14864 9.99943 2.14864C12.0765 2.14864 14.0684 2.96703 15.5374 4.42385C15.5499 4.43808 15.5633 4.45145 15.5777 4.46386C17.0284 5.92443 17.8382 7.89474 17.8307 9.94524C17.8231 11.9957 16.9988 13.9601 15.5374 15.4101Z" fill="#3F4766"/>
<path d="M15.3417 13.0294C14.9441 13.5903 14.3158 14.2767 13.5262 14.447C12.143 14.7464 10.0201 14.4573 7.37851 12.2518L7.34585 12.226C5.02316 10.2975 4.41992 8.69242 4.56593 7.41936C4.64662 6.69681 5.31902 6.04307 5.88577 5.61643C5.97537 5.54795 6.08162 5.49919 6.19603 5.47406C6.31043 5.44893 6.42982 5.44812 6.54464 5.47169C6.65946 5.49526 6.76652 5.54256 6.85727 5.60982C6.94803 5.67707 7.01995 5.7624 7.06728 5.859L7.9222 7.57935C7.97776 7.6909 7.99835 7.81389 7.98176 7.93512C7.96518 8.05635 7.91205 8.17125 7.82807 8.2675L7.3958 8.76984C7.30305 8.87357 7.24709 8.99977 7.2351 9.13222C7.22312 9.26466 7.25567 9.39729 7.32856 9.51303C7.57063 9.89323 8.15082 10.4523 8.79441 10.9702C9.51677 11.5551 10.3179 12.0901 10.8251 12.2725C10.9608 12.3221 11.11 12.3343 11.2535 12.3073C11.397 12.2803 11.5281 12.2154 11.6301 12.1211L12.1315 11.6686C12.2282 11.5832 12.3485 11.5223 12.4802 11.4921C12.6118 11.4618 12.75 11.4634 12.8807 11.4966L14.9114 12.0127C15.0234 12.0435 15.1261 12.0968 15.2116 12.1685C15.2971 12.2403 15.3631 12.3286 15.4046 12.4267C15.4461 12.5248 15.4621 12.6301 15.4512 12.7346C15.4403 12.8391 15.4028 12.9399 15.3417 13.0294Z" fill="#3F4766"/>
</svg>
