<svg width="10" height="18" viewBox="0 0 10 18" fill="none" xmlns="http://www.w3.org/2000/svg">
<path d="M8.77865 0H6.22119C3.63015 0 1.01576 1.91329 1.01576 6.18772C1.01576 8.40178 1.95418 10.1262 3.6743 11.1068L0.525878 16.8054C0.376647 17.0749 0.372765 17.3803 0.515472 17.6224C0.654803 17.8588 0.909503 18 1.19677 18H2.78927C3.15107 18 3.43322 17.8251 3.56844 17.5188L6.52038 11.745H6.73582V17.2804C6.73582 17.6705 7.065 18 7.45458 18H8.84593C9.28282 18 9.58792 17.6949 9.58792 17.2581V0.787612C9.58798 0.323887 9.2552 0 8.77865 0ZM6.73588 9.18022H6.35585C4.88227 9.18022 4.00252 7.97737 4.00252 5.96261C4.00252 3.45741 5.11385 2.56483 6.15391 2.56483H6.73588V9.18022Z" fill="#2D2D2D"/>
</svg>
