<svg width="76" height="34" viewBox="0 0 76 34" fill="none" xmlns="http://www.w3.org/2000/svg">
<path d="M1.70898 3.04688H3.24023L6.11816 10.7236L8.98926 3.04688H10.5205L6.71973 13H5.50293L1.70898 3.04688ZM1.01172 3.04688H2.46777L2.7207 9.69141V13H1.01172V3.04688ZM9.76172 3.04688H11.2246V13H9.50879V9.69141L9.76172 3.04688ZM17.2676 11.5166V7.98926C17.2676 7.72493 17.2197 7.49707 17.124 7.30566C17.0283 7.11426 16.8825 6.96615 16.6865 6.86133C16.4951 6.75651 16.2536 6.7041 15.9619 6.7041C15.693 6.7041 15.4606 6.74967 15.2646 6.84082C15.0687 6.93197 14.916 7.05501 14.8066 7.20996C14.6973 7.36491 14.6426 7.54036 14.6426 7.73633H13.002C13.002 7.44466 13.0726 7.16211 13.2139 6.88867C13.3551 6.61523 13.5602 6.37142 13.8291 6.15723C14.098 5.94303 14.4193 5.77441 14.793 5.65137C15.1667 5.52832 15.5859 5.4668 16.0508 5.4668C16.6068 5.4668 17.099 5.56022 17.5273 5.74707C17.9603 5.93392 18.2998 6.21647 18.5459 6.59473C18.7965 6.96842 18.9219 7.43783 18.9219 8.00293V11.291C18.9219 11.6283 18.9447 11.9313 18.9902 12.2002C19.0404 12.4645 19.111 12.6947 19.2021 12.8906V13H17.5137C17.4362 12.8223 17.3747 12.5967 17.3291 12.3232C17.2881 12.0452 17.2676 11.7764 17.2676 11.5166ZM17.5068 8.50195L17.5205 9.52051H16.3379C16.0326 9.52051 15.7637 9.55013 15.5312 9.60938C15.2988 9.66406 15.1051 9.74609 14.9502 9.85547C14.7952 9.96484 14.679 10.097 14.6016 10.252C14.5241 10.4069 14.4854 10.5824 14.4854 10.7783C14.4854 10.9743 14.5309 11.1543 14.6221 11.3184C14.7132 11.4779 14.8454 11.6032 15.0186 11.6943C15.1963 11.7855 15.4105 11.8311 15.6611 11.8311C15.9984 11.8311 16.2923 11.7627 16.543 11.626C16.7982 11.4847 16.9987 11.3138 17.1445 11.1133C17.2904 10.9082 17.3678 10.7145 17.377 10.5322L17.9102 11.2637C17.8555 11.4505 17.762 11.651 17.6299 11.8652C17.4977 12.0794 17.3245 12.2845 17.1104 12.4805C16.9007 12.6719 16.6478 12.8291 16.3516 12.9521C16.0599 13.0752 15.7227 13.1367 15.3398 13.1367C14.8568 13.1367 14.4261 13.041 14.0479 12.8496C13.6696 12.6536 13.3734 12.3916 13.1592 12.0635C12.945 11.7308 12.8379 11.3548 12.8379 10.9355C12.8379 10.5436 12.9108 10.1973 13.0566 9.89648C13.207 9.59115 13.4258 9.33594 13.7129 9.13086C14.0046 8.92578 14.36 8.77083 14.7793 8.66602C15.1986 8.55664 15.6771 8.50195 16.2148 8.50195H17.5068ZM24.7939 10.9971C24.7939 10.833 24.7529 10.6849 24.6709 10.5527C24.5889 10.416 24.4316 10.293 24.1992 10.1836C23.9714 10.0742 23.6341 9.97396 23.1875 9.88281C22.7956 9.79622 22.4355 9.69368 22.1074 9.5752C21.7839 9.45215 21.5059 9.30404 21.2734 9.13086C21.041 8.95768 20.861 8.7526 20.7334 8.51562C20.6058 8.27865 20.542 8.00521 20.542 7.69531C20.542 7.39453 20.6081 7.1097 20.7402 6.84082C20.8724 6.57194 21.0615 6.33496 21.3076 6.12988C21.5537 5.9248 21.8522 5.76302 22.2031 5.64453C22.5586 5.52604 22.9551 5.4668 23.3926 5.4668C24.0124 5.4668 24.5433 5.57161 24.9854 5.78125C25.432 5.98633 25.7738 6.2666 26.0107 6.62207C26.2477 6.97298 26.3662 7.36947 26.3662 7.81152H24.7188C24.7188 7.61556 24.6686 7.43327 24.5684 7.26465C24.4727 7.09147 24.3268 6.95247 24.1309 6.84766C23.9349 6.73828 23.6888 6.68359 23.3926 6.68359C23.11 6.68359 22.8753 6.72917 22.6885 6.82031C22.5062 6.9069 22.3695 7.02083 22.2783 7.16211C22.1917 7.30339 22.1484 7.45833 22.1484 7.62695C22.1484 7.75 22.1712 7.86165 22.2168 7.96191C22.2669 8.05762 22.349 8.14648 22.4629 8.22852C22.5768 8.30599 22.7318 8.37891 22.9277 8.44727C23.1283 8.51562 23.3789 8.58171 23.6797 8.64551C24.2448 8.764 24.7301 8.91667 25.1357 9.10352C25.5459 9.28581 25.8604 9.52279 26.0791 9.81445C26.2979 10.1016 26.4072 10.4661 26.4072 10.9082C26.4072 11.2363 26.3366 11.5371 26.1953 11.8105C26.0586 12.0794 25.8581 12.3141 25.5938 12.5146C25.3294 12.7106 25.0127 12.8633 24.6436 12.9727C24.279 13.082 23.8688 13.1367 23.4131 13.1367C22.7432 13.1367 22.1758 13.0182 21.7109 12.7812C21.2461 12.5397 20.8929 12.2321 20.6514 11.8584C20.4144 11.4801 20.2959 11.0882 20.2959 10.6826H21.8887C21.9069 10.988 21.9912 11.2318 22.1416 11.4141C22.2965 11.5918 22.488 11.7217 22.7158 11.8037C22.9482 11.8812 23.1875 11.9199 23.4336 11.9199C23.7298 11.9199 23.9782 11.8812 24.1787 11.8037C24.3792 11.7217 24.5319 11.6123 24.6367 11.4756C24.7415 11.3343 24.7939 11.1748 24.7939 10.9971ZM31.2402 5.60352V6.80664H27.0703V5.60352H31.2402ZM28.2734 3.79199H29.9209V10.9561C29.9209 11.1839 29.9528 11.3594 30.0166 11.4824C30.085 11.6009 30.1784 11.6807 30.2969 11.7217C30.4154 11.7627 30.5544 11.7832 30.7139 11.7832C30.8278 11.7832 30.9372 11.7764 31.042 11.7627C31.1468 11.749 31.2311 11.7354 31.2949 11.7217L31.3018 12.9795C31.165 13.0205 31.0055 13.057 30.8232 13.0889C30.6455 13.1208 30.4404 13.1367 30.208 13.1367C29.8298 13.1367 29.4948 13.0706 29.2031 12.9385C28.9115 12.8018 28.6836 12.5807 28.5195 12.2754C28.3555 11.9701 28.2734 11.5645 28.2734 11.0586V3.79199ZM35.7725 13.1367C35.2256 13.1367 34.7311 13.0479 34.2891 12.8701C33.8516 12.6878 33.4779 12.4349 33.168 12.1113C32.8626 11.7878 32.6279 11.4072 32.4639 10.9697C32.2998 10.5322 32.2178 10.0605 32.2178 9.55469V9.28125C32.2178 8.70247 32.3021 8.17839 32.4707 7.70898C32.6393 7.23958 32.874 6.83854 33.1748 6.50586C33.4756 6.16862 33.8311 5.91113 34.2412 5.7334C34.6514 5.55566 35.0957 5.4668 35.5742 5.4668C36.1029 5.4668 36.5654 5.55566 36.9619 5.7334C37.3584 5.91113 37.6865 6.16178 37.9463 6.48535C38.2106 6.80436 38.4066 7.1849 38.5342 7.62695C38.6663 8.06901 38.7324 8.55664 38.7324 9.08984V9.79395H33.0176V8.61133H37.1055V8.48145C37.0964 8.18522 37.0371 7.90723 36.9277 7.64746C36.8229 7.3877 36.6611 7.17806 36.4424 7.01855C36.2236 6.85905 35.932 6.7793 35.5674 6.7793C35.2939 6.7793 35.0501 6.83854 34.8359 6.95703C34.6263 7.07096 34.4508 7.2373 34.3096 7.45605C34.1683 7.6748 34.0589 7.93913 33.9814 8.24902C33.9085 8.55436 33.8721 8.89844 33.8721 9.28125V9.55469C33.8721 9.87826 33.9154 10.179 34.002 10.457C34.0931 10.7305 34.2253 10.9697 34.3984 11.1748C34.5716 11.3799 34.7812 11.5417 35.0273 11.6602C35.2734 11.7741 35.5537 11.8311 35.8682 11.8311C36.2646 11.8311 36.6178 11.7513 36.9277 11.5918C37.2376 11.4323 37.5065 11.2067 37.7344 10.915L38.6025 11.7559C38.443 11.9883 38.2357 12.2116 37.9805 12.4258C37.7253 12.6354 37.4131 12.8063 37.0439 12.9385C36.6794 13.0706 36.2555 13.1367 35.7725 13.1367ZM41.6719 7.01172V13H40.0244V5.60352H41.5967L41.6719 7.01172ZM43.9346 5.55566L43.9209 7.08691C43.8206 7.06868 43.7113 7.05501 43.5928 7.0459C43.4788 7.03678 43.3649 7.03223 43.251 7.03223C42.9684 7.03223 42.7201 7.07324 42.5059 7.15527C42.2917 7.23275 42.1117 7.34668 41.9658 7.49707C41.8245 7.6429 41.7152 7.82064 41.6377 8.03027C41.5602 8.23991 41.5146 8.47461 41.501 8.73438L41.125 8.76172C41.125 8.29688 41.1706 7.86621 41.2617 7.46973C41.3529 7.07324 41.4896 6.72461 41.6719 6.42383C41.8587 6.12305 42.0911 5.88835 42.3691 5.71973C42.6517 5.55111 42.9775 5.4668 43.3467 5.4668C43.4469 5.4668 43.554 5.47591 43.668 5.49414C43.7865 5.51237 43.8753 5.53288 43.9346 5.55566ZM51.0098 9.75977H52.7188C52.6641 10.4115 52.4818 10.9925 52.1719 11.5029C51.862 12.0088 51.4268 12.4076 50.8662 12.6992C50.3057 12.9909 49.6243 13.1367 48.8223 13.1367C48.207 13.1367 47.6533 13.0273 47.1611 12.8086C46.6689 12.5853 46.2474 12.2708 45.8965 11.8652C45.5456 11.4551 45.2767 10.9606 45.0898 10.3818C44.9076 9.80306 44.8164 9.15592 44.8164 8.44043V7.61328C44.8164 6.89779 44.9098 6.25065 45.0967 5.67188C45.2881 5.0931 45.5615 4.59863 45.917 4.18848C46.2725 3.77376 46.6986 3.45703 47.1953 3.23828C47.6966 3.01953 48.2594 2.91016 48.8838 2.91016C49.6768 2.91016 50.3467 3.05599 50.8936 3.34766C51.4404 3.63932 51.8643 4.04264 52.165 4.55762C52.4704 5.07259 52.6572 5.66276 52.7256 6.32812H51.0166C50.971 5.89974 50.8708 5.53288 50.7158 5.22754C50.5654 4.9222 50.3421 4.68978 50.0459 4.53027C49.7497 4.36621 49.3623 4.28418 48.8838 4.28418C48.4919 4.28418 48.1501 4.3571 47.8584 4.50293C47.5667 4.64876 47.3229 4.86296 47.127 5.14551C46.931 5.42806 46.7829 5.77669 46.6826 6.19141C46.5869 6.60156 46.5391 7.07096 46.5391 7.59961V8.44043C46.5391 8.94173 46.5824 9.39746 46.6689 9.80762C46.7601 10.2132 46.8968 10.5618 47.0791 10.8535C47.266 11.1452 47.5029 11.3708 47.79 11.5303C48.0771 11.6898 48.4212 11.7695 48.8223 11.7695C49.3099 11.7695 49.7041 11.6921 50.0049 11.5371C50.3102 11.3822 50.5404 11.1566 50.6953 10.8604C50.8548 10.5596 50.9596 10.1927 51.0098 9.75977ZM58.2832 11.5166V7.98926C58.2832 7.72493 58.2354 7.49707 58.1396 7.30566C58.0439 7.11426 57.8981 6.96615 57.7021 6.86133C57.5107 6.75651 57.2692 6.7041 56.9775 6.7041C56.7087 6.7041 56.4762 6.74967 56.2803 6.84082C56.0843 6.93197 55.9316 7.05501 55.8223 7.20996C55.7129 7.36491 55.6582 7.54036 55.6582 7.73633H54.0176C54.0176 7.44466 54.0882 7.16211 54.2295 6.88867C54.3708 6.61523 54.5758 6.37142 54.8447 6.15723C55.1136 5.94303 55.4349 5.77441 55.8086 5.65137C56.1823 5.52832 56.6016 5.4668 57.0664 5.4668C57.6224 5.4668 58.1146 5.56022 58.543 5.74707C58.9759 5.93392 59.3154 6.21647 59.5615 6.59473C59.8122 6.96842 59.9375 7.43783 59.9375 8.00293V11.291C59.9375 11.6283 59.9603 11.9313 60.0059 12.2002C60.056 12.4645 60.1266 12.6947 60.2178 12.8906V13H58.5293C58.4518 12.8223 58.3903 12.5967 58.3447 12.3232C58.3037 12.0452 58.2832 11.7764 58.2832 11.5166ZM58.5225 8.50195L58.5361 9.52051H57.3535C57.0482 9.52051 56.7793 9.55013 56.5469 9.60938C56.3145 9.66406 56.1208 9.74609 55.9658 9.85547C55.8109 9.96484 55.6947 10.097 55.6172 10.252C55.5397 10.4069 55.501 10.5824 55.501 10.7783C55.501 10.9743 55.5465 11.1543 55.6377 11.3184C55.7288 11.4779 55.861 11.6032 56.0342 11.6943C56.2119 11.7855 56.4261 11.8311 56.6768 11.8311C57.014 11.8311 57.3079 11.7627 57.5586 11.626C57.8138 11.4847 58.0143 11.3138 58.1602 11.1133C58.306 10.9082 58.3835 10.7145 58.3926 10.5322L58.9258 11.2637C58.8711 11.4505 58.7777 11.651 58.6455 11.8652C58.5133 12.0794 58.3402 12.2845 58.126 12.4805C57.9163 12.6719 57.6634 12.8291 57.3672 12.9521C57.0755 13.0752 56.7383 13.1367 56.3555 13.1367C55.8724 13.1367 55.4417 13.041 55.0635 12.8496C54.6852 12.6536 54.389 12.3916 54.1748 12.0635C53.9606 11.7308 53.8535 11.3548 53.8535 10.9355C53.8535 10.5436 53.9264 10.1973 54.0723 9.89648C54.2227 9.59115 54.4414 9.33594 54.7285 9.13086C55.0202 8.92578 55.3757 8.77083 55.7949 8.66602C56.2142 8.55664 56.6927 8.50195 57.2305 8.50195H58.5225ZM63.3145 7.01172V13H61.667V5.60352H63.2393L63.3145 7.01172ZM65.5771 5.55566L65.5635 7.08691C65.4632 7.06868 65.3538 7.05501 65.2354 7.0459C65.1214 7.03678 65.0075 7.03223 64.8936 7.03223C64.611 7.03223 64.3626 7.07324 64.1484 7.15527C63.9342 7.23275 63.7542 7.34668 63.6084 7.49707C63.4671 7.6429 63.3577 7.82064 63.2803 8.03027C63.2028 8.23991 63.1572 8.47461 63.1436 8.73438L62.7676 8.76172C62.7676 8.29688 62.8132 7.86621 62.9043 7.46973C62.9954 7.07324 63.1322 6.72461 63.3145 6.42383C63.5013 6.12305 63.7337 5.88835 64.0117 5.71973C64.2943 5.55111 64.6201 5.4668 64.9893 5.4668C65.0895 5.4668 65.1966 5.47591 65.3105 5.49414C65.429 5.51237 65.5179 5.53288 65.5771 5.55566ZM70.9844 11.4688V2.5H72.6387V13H71.1416L70.9844 11.4688ZM66.1719 9.38379V9.24023C66.1719 8.67969 66.238 8.16927 66.3701 7.70898C66.5023 7.24414 66.6937 6.84538 66.9443 6.5127C67.195 6.17546 67.5003 5.91797 67.8604 5.74023C68.2204 5.55794 68.626 5.4668 69.0771 5.4668C69.5238 5.4668 69.9157 5.55339 70.2529 5.72656C70.5902 5.89974 70.8773 6.14811 71.1143 6.47168C71.3512 6.79069 71.5404 7.1735 71.6816 7.62012C71.8229 8.06217 71.9232 8.55436 71.9824 9.09668V9.55469C71.9232 10.0833 71.8229 10.5664 71.6816 11.0039C71.5404 11.4414 71.3512 11.8197 71.1143 12.1387C70.8773 12.4577 70.5879 12.7038 70.2461 12.877C69.9089 13.0501 69.5146 13.1367 69.0635 13.1367C68.6169 13.1367 68.2135 13.0433 67.8535 12.8564C67.498 12.6696 67.195 12.4076 66.9443 12.0703C66.6937 11.7331 66.5023 11.3366 66.3701 10.8809C66.238 10.4206 66.1719 9.92155 66.1719 9.38379ZM67.8193 9.24023V9.38379C67.8193 9.72103 67.849 10.0355 67.9082 10.3271C67.972 10.6188 68.07 10.8763 68.2021 11.0996C68.3343 11.3184 68.5052 11.4915 68.7148 11.6191C68.929 11.7422 69.1842 11.8037 69.4805 11.8037C69.8542 11.8037 70.1618 11.7217 70.4033 11.5576C70.6449 11.3936 70.834 11.1725 70.9707 10.8945C71.112 10.612 71.2077 10.2975 71.2578 9.95117V8.71387C71.2305 8.44499 71.1735 8.19434 71.0869 7.96191C71.0049 7.72949 70.8932 7.52669 70.752 7.35352C70.6107 7.17578 70.4352 7.03906 70.2256 6.94336C70.0205 6.8431 69.7767 6.79297 69.4941 6.79297C69.1934 6.79297 68.9382 6.85677 68.7285 6.98438C68.5189 7.11198 68.3457 7.28743 68.209 7.51074C68.0768 7.73405 67.9788 7.99382 67.915 8.29004C67.8512 8.58626 67.8193 8.90299 67.8193 9.24023Z" fill="#FEC09E"/>
<path d="M6.24805 28.4365C6.24805 28.2314 6.21615 28.0492 6.15234 27.8896C6.0931 27.7301 5.986 27.5843 5.83105 27.4521C5.67611 27.32 5.45736 27.1924 5.1748 27.0693C4.89681 26.9417 4.54134 26.8118 4.1084 26.6797C3.63444 26.5339 3.19694 26.3721 2.7959 26.1943C2.39941 26.012 2.05306 25.8024 1.75684 25.5654C1.46061 25.3239 1.23047 25.0482 1.06641 24.7383C0.902344 24.4238 0.820312 24.0615 0.820312 23.6514C0.820312 23.2458 0.904622 22.8766 1.07324 22.5439C1.24642 22.2113 1.49023 21.9242 1.80469 21.6826C2.1237 21.4365 2.49967 21.2474 2.93262 21.1152C3.36556 20.9785 3.84408 20.9102 4.36816 20.9102C5.10645 20.9102 5.74219 21.0469 6.27539 21.3203C6.81315 21.5938 7.22559 21.9606 7.5127 22.4209C7.80436 22.8812 7.9502 23.3893 7.9502 23.9453H6.24805C6.24805 23.6172 6.17741 23.3278 6.03613 23.0771C5.89941 22.8219 5.68978 22.6214 5.40723 22.4756C5.12923 22.3298 4.77604 22.2568 4.34766 22.2568C3.94206 22.2568 3.60482 22.3184 3.33594 22.4414C3.06706 22.5645 2.86654 22.7308 2.73438 22.9404C2.60221 23.1501 2.53613 23.387 2.53613 23.6514C2.53613 23.8382 2.57943 24.0091 2.66602 24.1641C2.7526 24.3145 2.88477 24.4557 3.0625 24.5879C3.24023 24.7155 3.46354 24.8363 3.73242 24.9502C4.0013 25.0641 4.31803 25.1735 4.68262 25.2783C5.23405 25.4424 5.71484 25.6247 6.125 25.8252C6.53516 26.0212 6.87695 26.2445 7.15039 26.4951C7.42383 26.7458 7.62891 27.0306 7.76562 27.3496C7.90234 27.6641 7.9707 28.0218 7.9707 28.4229C7.9707 28.8421 7.88639 29.2204 7.71777 29.5576C7.54915 29.8903 7.30762 30.1751 6.99316 30.4121C6.68327 30.6445 6.30957 30.8245 5.87207 30.9521C5.43913 31.0752 4.95605 31.1367 4.42285 31.1367C3.94434 31.1367 3.47266 31.0729 3.00781 30.9453C2.54753 30.8177 2.12826 30.624 1.75 30.3643C1.37174 30.0999 1.07096 29.7718 0.847656 29.3799C0.624349 28.9834 0.512695 28.5208 0.512695 27.9922H2.22852C2.22852 28.3158 2.2832 28.5915 2.39258 28.8193C2.50651 29.0472 2.66374 29.234 2.86426 29.3799C3.06478 29.5212 3.2972 29.626 3.56152 29.6943C3.8304 29.7627 4.11751 29.7969 4.42285 29.7969C4.82389 29.7969 5.15885 29.7399 5.42773 29.626C5.70117 29.512 5.90625 29.3525 6.04297 29.1475C6.17969 28.9424 6.24805 28.7054 6.24805 28.4365ZM12.585 31.1367C12.0381 31.1367 11.5436 31.0479 11.1016 30.8701C10.6641 30.6878 10.2904 30.4349 9.98047 30.1113C9.67513 29.7878 9.44043 29.4072 9.27637 28.9697C9.1123 28.5322 9.03027 28.0605 9.03027 27.5547V27.2812C9.03027 26.7025 9.11458 26.1784 9.2832 25.709C9.45182 25.2396 9.68652 24.8385 9.9873 24.5059C10.2881 24.1686 10.6436 23.9111 11.0537 23.7334C11.4639 23.5557 11.9082 23.4668 12.3867 23.4668C12.9154 23.4668 13.3779 23.5557 13.7744 23.7334C14.1709 23.9111 14.499 24.1618 14.7588 24.4854C15.0231 24.8044 15.2191 25.1849 15.3467 25.627C15.4788 26.069 15.5449 26.5566 15.5449 27.0898V27.7939H9.83008V26.6113H13.918V26.4814C13.9089 26.1852 13.8496 25.9072 13.7402 25.6475C13.6354 25.3877 13.4736 25.1781 13.2549 25.0186C13.0361 24.859 12.7445 24.7793 12.3799 24.7793C12.1064 24.7793 11.8626 24.8385 11.6484 24.957C11.4388 25.071 11.2633 25.2373 11.1221 25.4561C10.9808 25.6748 10.8714 25.9391 10.7939 26.249C10.721 26.5544 10.6846 26.8984 10.6846 27.2812V27.5547C10.6846 27.8783 10.7279 28.179 10.8145 28.457C10.9056 28.7305 11.0378 28.9697 11.2109 29.1748C11.3841 29.3799 11.5938 29.5417 11.8398 29.6602C12.0859 29.7741 12.3662 29.8311 12.6807 29.8311C13.0771 29.8311 13.4303 29.7513 13.7402 29.5918C14.0501 29.4323 14.319 29.2067 14.5469 28.915L15.415 29.7559C15.2555 29.9883 15.0482 30.2116 14.793 30.4258C14.5378 30.6354 14.2256 30.8063 13.8564 30.9385C13.4919 31.0706 13.068 31.1367 12.585 31.1367ZM19.8516 29.8242C20.1204 29.8242 20.362 29.7718 20.5762 29.667C20.7949 29.5576 20.9704 29.4072 21.1025 29.2158C21.2393 29.0244 21.3145 28.8034 21.3281 28.5527H22.8799C22.8708 29.0312 22.7295 29.4665 22.4561 29.8584C22.1826 30.2503 21.8203 30.5625 21.3691 30.7949C20.918 31.0228 20.4189 31.1367 19.8721 31.1367C19.307 31.1367 18.8148 31.041 18.3955 30.8496C17.9762 30.6536 17.6276 30.3848 17.3496 30.043C17.0716 29.7012 16.862 29.307 16.7207 28.8604C16.584 28.4137 16.5156 27.9352 16.5156 27.4248V27.1855C16.5156 26.6751 16.584 26.1966 16.7207 25.75C16.862 25.2988 17.0716 24.9023 17.3496 24.5605C17.6276 24.2188 17.9762 23.9521 18.3955 23.7607C18.8148 23.5648 19.3047 23.4668 19.8652 23.4668C20.4577 23.4668 20.9772 23.5853 21.4238 23.8223C21.8704 24.0547 22.2214 24.3805 22.4766 24.7998C22.7363 25.2145 22.8708 25.6976 22.8799 26.249H21.3281C21.3145 25.9756 21.2461 25.7295 21.123 25.5107C21.0046 25.2874 20.8359 25.1097 20.6172 24.9775C20.403 24.8454 20.1455 24.7793 19.8447 24.7793C19.512 24.7793 19.2363 24.8477 19.0176 24.9844C18.7988 25.1165 18.6279 25.2988 18.5049 25.5312C18.3818 25.7591 18.293 26.0166 18.2383 26.3037C18.1882 26.5863 18.1631 26.8802 18.1631 27.1855V27.4248C18.1631 27.7301 18.1882 28.0264 18.2383 28.3135C18.2884 28.6006 18.375 28.8581 18.498 29.0859C18.6257 29.3092 18.7988 29.4893 19.0176 29.626C19.2363 29.7581 19.5143 29.8242 19.8516 29.8242ZM28.5947 29.2568V23.6035H30.249V31H28.6904L28.5947 29.2568ZM28.8271 27.7188L29.3809 27.7051C29.3809 28.2018 29.3262 28.6598 29.2168 29.0791C29.1074 29.4938 28.9388 29.8561 28.7109 30.166C28.4831 30.4714 28.1914 30.7106 27.8359 30.8838C27.4805 31.0524 27.0544 31.1367 26.5576 31.1367C26.1976 31.1367 25.8672 31.0843 25.5664 30.9795C25.2656 30.8747 25.0059 30.7129 24.7871 30.4941C24.5729 30.2754 24.4066 29.9906 24.2881 29.6396C24.1696 29.2887 24.1104 28.8695 24.1104 28.3818V23.6035H25.7578V28.3955C25.7578 28.6644 25.7897 28.89 25.8535 29.0723C25.9173 29.25 26.0039 29.3936 26.1133 29.5029C26.2227 29.6123 26.3503 29.6898 26.4961 29.7354C26.6419 29.7809 26.7969 29.8037 26.9609 29.8037C27.4303 29.8037 27.7995 29.7126 28.0684 29.5303C28.3418 29.3434 28.5355 29.0928 28.6494 28.7783C28.7679 28.4639 28.8271 28.1107 28.8271 27.7188ZM33.5918 25.0117V31H31.9443V23.6035H33.5166L33.5918 25.0117ZM35.8545 23.5557L35.8408 25.0869C35.7406 25.0687 35.6312 25.055 35.5127 25.0459C35.3988 25.0368 35.2848 25.0322 35.1709 25.0322C34.8883 25.0322 34.64 25.0732 34.4258 25.1553C34.2116 25.2327 34.0316 25.3467 33.8857 25.4971C33.7445 25.6429 33.6351 25.8206 33.5576 26.0303C33.4801 26.2399 33.4346 26.4746 33.4209 26.7344L33.0449 26.7617C33.0449 26.2969 33.0905 25.8662 33.1816 25.4697C33.2728 25.0732 33.4095 24.7246 33.5918 24.4238C33.7786 24.123 34.0111 23.8883 34.2891 23.7197C34.5716 23.5511 34.8975 23.4668 35.2666 23.4668C35.3669 23.4668 35.474 23.4759 35.5879 23.4941C35.7064 23.5124 35.7952 23.5329 35.8545 23.5557ZM40.0107 31.1367C39.4639 31.1367 38.9694 31.0479 38.5273 30.8701C38.0898 30.6878 37.7161 30.4349 37.4062 30.1113C37.1009 29.7878 36.8662 29.4072 36.7021 28.9697C36.5381 28.5322 36.4561 28.0605 36.4561 27.5547V27.2812C36.4561 26.7025 36.5404 26.1784 36.709 25.709C36.8776 25.2396 37.1123 24.8385 37.4131 24.5059C37.7139 24.1686 38.0693 23.9111 38.4795 23.7334C38.8896 23.5557 39.334 23.4668 39.8125 23.4668C40.3411 23.4668 40.8037 23.5557 41.2002 23.7334C41.5967 23.9111 41.9248 24.1618 42.1846 24.4854C42.4489 24.8044 42.6449 25.1849 42.7725 25.627C42.9046 26.069 42.9707 26.5566 42.9707 27.0898V27.7939H37.2559V26.6113H41.3438V26.4814C41.3346 26.1852 41.2754 25.9072 41.166 25.6475C41.0612 25.3877 40.8994 25.1781 40.6807 25.0186C40.4619 24.859 40.1702 24.7793 39.8057 24.7793C39.5322 24.7793 39.2884 24.8385 39.0742 24.957C38.8646 25.071 38.6891 25.2373 38.5479 25.4561C38.4066 25.6748 38.2972 25.9391 38.2197 26.249C38.1468 26.5544 38.1104 26.8984 38.1104 27.2812V27.5547C38.1104 27.8783 38.1536 28.179 38.2402 28.457C38.3314 28.7305 38.4635 28.9697 38.6367 29.1748C38.8099 29.3799 39.0195 29.5417 39.2656 29.6602C39.5117 29.7741 39.792 29.8311 40.1064 29.8311C40.5029 29.8311 40.8561 29.7513 41.166 29.5918C41.4759 29.4323 41.7448 29.2067 41.9727 28.915L42.8408 29.7559C42.6813 29.9883 42.474 30.2116 42.2188 30.4258C41.9635 30.6354 41.6514 30.8063 41.2822 30.9385C40.9176 31.0706 40.4938 31.1367 40.0107 31.1367ZM50.2988 27.7598H52.0078C51.9531 28.4115 51.7708 28.9925 51.4609 29.5029C51.151 30.0088 50.7158 30.4076 50.1553 30.6992C49.5947 30.9909 48.9134 31.1367 48.1113 31.1367C47.4961 31.1367 46.9424 31.0273 46.4502 30.8086C45.958 30.5853 45.5365 30.2708 45.1855 29.8652C44.8346 29.4551 44.5658 28.9606 44.3789 28.3818C44.1966 27.8031 44.1055 27.1559 44.1055 26.4404V25.6133C44.1055 24.8978 44.1989 24.2507 44.3857 23.6719C44.5771 23.0931 44.8506 22.5986 45.2061 22.1885C45.5615 21.7738 45.9876 21.457 46.4844 21.2383C46.9857 21.0195 47.5485 20.9102 48.1729 20.9102C48.9658 20.9102 49.6357 21.056 50.1826 21.3477C50.7295 21.6393 51.1533 22.0426 51.4541 22.5576C51.7594 23.0726 51.9463 23.6628 52.0146 24.3281H50.3057C50.2601 23.8997 50.1598 23.5329 50.0049 23.2275C49.8545 22.9222 49.6312 22.6898 49.335 22.5303C49.0387 22.3662 48.6514 22.2842 48.1729 22.2842C47.7809 22.2842 47.4391 22.3571 47.1475 22.5029C46.8558 22.6488 46.612 22.863 46.416 23.1455C46.2201 23.4281 46.0719 23.7767 45.9717 24.1914C45.876 24.6016 45.8281 25.071 45.8281 25.5996V26.4404C45.8281 26.9417 45.8714 27.3975 45.958 27.8076C46.0492 28.2132 46.1859 28.5618 46.3682 28.8535C46.555 29.1452 46.792 29.3708 47.0791 29.5303C47.3662 29.6898 47.7103 29.7695 48.1113 29.7695C48.599 29.7695 48.9932 29.6921 49.2939 29.5371C49.5993 29.3822 49.8294 29.1566 49.9844 28.8604C50.1439 28.5596 50.2487 28.1927 50.2988 27.7598ZM53.0879 27.3838V27.2266C53.0879 26.6934 53.1654 26.1989 53.3203 25.7432C53.4753 25.2829 53.6986 24.8841 53.9902 24.5469C54.2865 24.2051 54.6465 23.9408 55.0703 23.7539C55.4987 23.5625 55.9818 23.4668 56.5195 23.4668C57.0618 23.4668 57.5449 23.5625 57.9688 23.7539C58.3971 23.9408 58.7594 24.2051 59.0557 24.5469C59.3519 24.8841 59.5775 25.2829 59.7324 25.7432C59.8874 26.1989 59.9648 26.6934 59.9648 27.2266V27.3838C59.9648 27.917 59.8874 28.4115 59.7324 28.8672C59.5775 29.3229 59.3519 29.7217 59.0557 30.0635C58.7594 30.4007 58.3994 30.665 57.9756 30.8564C57.5518 31.0433 57.071 31.1367 56.5332 31.1367C55.9909 31.1367 55.5055 31.0433 55.0771 30.8564C54.6533 30.665 54.2933 30.4007 53.9971 30.0635C53.7008 29.7217 53.4753 29.3229 53.3203 28.8672C53.1654 28.4115 53.0879 27.917 53.0879 27.3838ZM54.7354 27.2266V27.3838C54.7354 27.7165 54.7695 28.0309 54.8379 28.3271C54.9062 28.6234 55.0133 28.8831 55.1592 29.1064C55.305 29.3298 55.4919 29.5052 55.7197 29.6328C55.9476 29.7604 56.2188 29.8242 56.5332 29.8242C56.8385 29.8242 57.1029 29.7604 57.3262 29.6328C57.554 29.5052 57.7409 29.3298 57.8867 29.1064C58.0326 28.8831 58.1396 28.6234 58.208 28.3271C58.2809 28.0309 58.3174 27.7165 58.3174 27.3838V27.2266C58.3174 26.8984 58.2809 26.5885 58.208 26.2969C58.1396 26.0007 58.0303 25.7386 57.8799 25.5107C57.734 25.2829 57.5472 25.1051 57.3193 24.9775C57.096 24.8454 56.8294 24.7793 56.5195 24.7793C56.2096 24.7793 55.9408 24.8454 55.7129 24.9775C55.4896 25.1051 55.305 25.2829 55.1592 25.5107C55.0133 25.7386 54.9062 26.0007 54.8379 26.2969C54.7695 26.5885 54.7354 26.8984 54.7354 27.2266ZM65.8574 29.4688V20.5H67.5117V31H66.0146L65.8574 29.4688ZM61.0449 27.3838V27.2402C61.0449 26.6797 61.111 26.1693 61.2432 25.709C61.3753 25.2441 61.5667 24.8454 61.8174 24.5127C62.068 24.1755 62.3734 23.918 62.7334 23.7402C63.0934 23.5579 63.499 23.4668 63.9502 23.4668C64.3968 23.4668 64.7887 23.5534 65.126 23.7266C65.4632 23.8997 65.7503 24.1481 65.9873 24.4717C66.2243 24.7907 66.4134 25.1735 66.5547 25.6201C66.696 26.0622 66.7962 26.5544 66.8555 27.0967V27.5547C66.7962 28.0833 66.696 28.5664 66.5547 29.0039C66.4134 29.4414 66.2243 29.8197 65.9873 30.1387C65.7503 30.4577 65.4609 30.7038 65.1191 30.877C64.7819 31.0501 64.3877 31.1367 63.9365 31.1367C63.4899 31.1367 63.0866 31.0433 62.7266 30.8564C62.3711 30.6696 62.068 30.4076 61.8174 30.0703C61.5667 29.7331 61.3753 29.3366 61.2432 28.8809C61.111 28.4206 61.0449 27.9215 61.0449 27.3838ZM62.6924 27.2402V27.3838C62.6924 27.721 62.722 28.0355 62.7812 28.3271C62.8451 28.6188 62.943 28.8763 63.0752 29.0996C63.2074 29.3184 63.3783 29.4915 63.5879 29.6191C63.8021 29.7422 64.0573 29.8037 64.3535 29.8037C64.7272 29.8037 65.0348 29.7217 65.2764 29.5576C65.5179 29.3936 65.707 29.1725 65.8438 28.8945C65.985 28.612 66.0807 28.2975 66.1309 27.9512V26.7139C66.1035 26.445 66.0465 26.1943 65.96 25.9619C65.8779 25.7295 65.7663 25.5267 65.625 25.3535C65.4837 25.1758 65.3083 25.0391 65.0986 24.9434C64.8936 24.8431 64.6497 24.793 64.3672 24.793C64.0664 24.793 63.8112 24.8568 63.6016 24.9844C63.3919 25.112 63.2188 25.2874 63.082 25.5107C62.9499 25.734 62.8519 25.9938 62.7881 26.29C62.7243 26.5863 62.6924 26.903 62.6924 27.2402ZM72.4951 31.1367C71.9482 31.1367 71.4538 31.0479 71.0117 30.8701C70.5742 30.6878 70.2005 30.4349 69.8906 30.1113C69.5853 29.7878 69.3506 29.4072 69.1865 28.9697C69.0225 28.5322 68.9404 28.0605 68.9404 27.5547V27.2812C68.9404 26.7025 69.0247 26.1784 69.1934 25.709C69.362 25.2396 69.5967 24.8385 69.8975 24.5059C70.1982 24.1686 70.5537 23.9111 70.9639 23.7334C71.374 23.5557 71.8184 23.4668 72.2969 23.4668C72.8255 23.4668 73.2881 23.5557 73.6846 23.7334C74.0811 23.9111 74.4092 24.1618 74.6689 24.4854C74.9333 24.8044 75.1292 25.1849 75.2568 25.627C75.389 26.069 75.4551 26.5566 75.4551 27.0898V27.7939H69.7402V26.6113H73.8281V26.4814C73.819 26.1852 73.7598 25.9072 73.6504 25.6475C73.5456 25.3877 73.3838 25.1781 73.165 25.0186C72.9463 24.859 72.6546 24.7793 72.29 24.7793C72.0166 24.7793 71.7728 24.8385 71.5586 24.957C71.349 25.071 71.1735 25.2373 71.0322 25.4561C70.891 25.6748 70.7816 25.9391 70.7041 26.249C70.6312 26.5544 70.5947 26.8984 70.5947 27.2812V27.5547C70.5947 27.8783 70.638 28.179 70.7246 28.457C70.8158 28.7305 70.9479 28.9697 71.1211 29.1748C71.2943 29.3799 71.5039 29.5417 71.75 29.6602C71.9961 29.7741 72.2764 29.8311 72.5908 29.8311C72.9873 29.8311 73.3405 29.7513 73.6504 29.5918C73.9603 29.4323 74.2292 29.2067 74.457 28.915L75.3252 29.7559C75.1657 29.9883 74.9583 30.2116 74.7031 30.4258C74.4479 30.6354 74.1357 30.8063 73.7666 30.9385C73.402 31.0706 72.9782 31.1367 72.4951 31.1367Z" fill="#F79E1B"/>
</svg>
