<svg width="16" height="16" viewBox="0 0 16 16" fill="none" xmlns="http://www.w3.org/2000/svg">
<mask id="mask0_55_1151" style="mask-type:alpha" maskUnits="userSpaceOnUse" x="0" y="0" width="16" height="16">
<rect width="16" height="16" fill="#D9D9D9"/>
</mask>
<g mask="url(#mask0_55_1151)">
<path d="M7.99984 15.3333L3.19984 11.7333C3.03317 11.6111 2.90262 11.4555 2.80817 11.2666C2.71373 11.0778 2.6665 10.8778 2.6665 10.6666V2.66665C2.6665 2.29998 2.79706 1.98609 3.05817 1.72498C3.31928 1.46387 3.63317 1.33331 3.99984 1.33331H11.9998C12.3665 1.33331 12.6804 1.46387 12.9415 1.72498C13.2026 1.98609 13.3332 2.29998 13.3332 2.66665V10.6666C13.3332 10.8778 13.2859 11.0778 13.1915 11.2666C13.0971 11.4555 12.9665 11.6111 12.7998 11.7333L7.99984 15.3333ZM7.99984 13.6666L11.9998 10.6666V2.66665H3.99984V10.6666L7.99984 13.6666ZM7.29984 9.99998L11.0665 6.23331L10.1332 5.26665L7.29984 8.09998L5.89984 6.69998L4.93317 7.63331L7.29984 9.99998Z" fill="#028F68"/>
</g>
</svg>
