<svg width="16" height="17" viewBox="0 0 16 17" fill="none" xmlns="http://www.w3.org/2000/svg">
<mask id="mask0_55_1124" style="mask-type:alpha" maskUnits="userSpaceOnUse" x="0" y="0" width="16" height="17">
<rect y="0.601074" width="16" height="16" fill="#D9D9D9"/>
</mask>
<g mask="url(#mask0_55_1124)">
<path d="M10.2002 11.7344L11.1335 10.8011L8.66683 8.33439V5.26772H7.3335V8.86772L10.2002 11.7344ZM8.00016 15.2677C7.07794 15.2677 6.21127 15.0927 5.40016 14.7427C4.58905 14.3927 3.8835 13.9177 3.2835 13.3177C2.6835 12.7177 2.2085 12.0122 1.8585 11.2011C1.5085 10.3899 1.3335 9.52328 1.3335 8.60105C1.3335 7.67883 1.5085 6.81216 1.8585 6.00105C2.2085 5.18994 2.6835 4.48439 3.2835 3.88439C3.8835 3.28439 4.58905 2.80939 5.40016 2.45939C6.21127 2.10939 7.07794 1.93439 8.00016 1.93439C8.92238 1.93439 9.78905 2.10939 10.6002 2.45939C11.4113 2.80939 12.1168 3.28439 12.7168 3.88439C13.3168 4.48439 13.7918 5.18994 14.1418 6.00105C14.4918 6.81216 14.6668 7.67883 14.6668 8.60105C14.6668 9.52328 14.4918 10.3899 14.1418 11.2011C13.7918 12.0122 13.3168 12.7177 12.7168 13.3177C12.1168 13.9177 11.4113 14.3927 10.6002 14.7427C9.78905 15.0927 8.92238 15.2677 8.00016 15.2677ZM8.00016 13.9344C9.47794 13.9344 10.7363 13.4149 11.7752 12.3761C12.8141 11.3372 13.3335 10.0788 13.3335 8.60105C13.3335 7.12328 12.8141 5.86494 11.7752 4.82605C10.7363 3.78716 9.47794 3.26772 8.00016 3.26772C6.52238 3.26772 5.26405 3.78716 4.22516 4.82605C3.18627 5.86494 2.66683 7.12328 2.66683 8.60105C2.66683 10.0788 3.18627 11.3372 4.22516 12.3761C5.26405 13.4149 6.52238 13.9344 8.00016 13.9344Z" fill="#676E7E"/>
</g>
</svg>
