<svg width="14" height="14" viewBox="0 0 14 14" fill="none" xmlns="http://www.w3.org/2000/svg">
<path d="M1.75 11.3875C2.425 10.725 3.20938 10.2031 4.10313 9.82187C4.99688 9.44062 5.9625 9.25 7 9.25C8.0375 9.25 9.00313 9.44062 9.89688 9.82187C10.7906 10.2031 11.575 10.725 12.25 11.3875V1.75H1.75V11.3875ZM7 7.75C7.725 7.75 8.34375 7.49375 8.85625 6.98125C9.36875 6.46875 9.625 5.85 9.625 5.125C9.625 4.4 9.36875 3.78125 8.85625 3.26875C8.34375 2.75625 7.725 2.5 7 2.5C6.275 2.5 5.65625 2.75625 5.14375 3.26875C4.63125 3.78125 4.375 4.4 4.375 5.125C4.375 5.85 4.63125 6.46875 5.14375 6.98125C5.65625 7.49375 6.275 7.75 7 7.75ZM1.75 13.75C1.3375 13.75 0.984375 13.6031 0.690625 13.3094C0.396875 13.0156 0.25 12.6625 0.25 12.25V1.75C0.25 1.3375 0.396875 0.984375 0.690625 0.690625C0.984375 0.396875 1.3375 0.25 1.75 0.25H12.25C12.6625 0.25 13.0156 0.396875 13.3094 0.690625C13.6031 0.984375 13.75 1.3375 13.75 1.75V12.25C13.75 12.6625 13.6031 13.0156 13.3094 13.3094C13.0156 13.6031 12.6625 13.75 12.25 13.75H1.75ZM3.25 12.25H10.75V12.0625C10.225 11.625 9.64375 11.2969 9.00625 11.0781C8.36875 10.8594 7.7 10.75 7 10.75C6.3 10.75 5.63125 10.8594 4.99375 11.0781C4.35625 11.2969 3.775 11.625 3.25 12.0625V12.25ZM7 6.25C6.6875 6.25 6.42188 6.14063 6.20312 5.92188C5.98437 5.70312 5.875 5.4375 5.875 5.125C5.875 4.8125 5.98437 4.54688 6.20312 4.32812C6.42188 4.10937 6.6875 4 7 4C7.3125 4 7.57812 4.10937 7.79688 4.32812C8.01563 4.54688 8.125 4.8125 8.125 5.125C8.125 5.4375 8.01563 5.70312 7.79688 5.92188C7.57812 6.14063 7.3125 6.25 7 6.25Z" fill="#6C8AAD"/>
</svg>
